<svg width="1134" height="507" xmlns="http://www.w3.org/2000/svg" xmlns:xlink="http://www.w3.org/1999/xlink" overflow="hidden"><defs><clipPath id="clip0"><rect x="0" y="0" width="1134" height="507"/></clipPath><clipPath id="clip1"><rect x="0" y="0" width="1135" height="323"/></clipPath><clipPath id="clip2"><rect x="0" y="0" width="1135" height="323"/></clipPath></defs><g clip-path="url(#clip0)"><rect x="0" y="0" width="1134" height="507.426" fill="#FFFFFF" fill-opacity="0"/><g clip-path="url(#clip1)"><g clip-path="url(#clip2)"><g><path d="M0 6.66174 181.543 6.66174 181.543 189.955 148.067 189.955C146.135 186.704 143.721 183.292 142.273 181.505 139.537 178.255 133.582 172.08 130.202 169.155 126.823 166.231 125.535 165.58 123.764 163.955 121.833 162.331 117.005 158.431 117.005 158.431 117.005 158.431 118.292 153.068 119.097 150.631 119.902 148.356 124.569 147.706 126.34 147.056 128.11 146.406 131.812 145.106 134.225 143.806 136.801 142.506 139.698 140.881 139.698 140.881 139.698 140.881 146.135 142.181 149.515 139.256 152.895 136.331 149.837 129.344 149.193 127.232 148.55 124.957 150.964 121.707 151.607 120.407 152.251 119.107 150.32 117.807 150.32 117.807 150.32 117.807 151.607 117.97 151.93 116.507 152.251 115.207 150.964 114.232 150.642 112.933 150.32 111.632 149.998 109.358 150.481 106.758 150.642 106.27 151.124 106.27 152.412 106.27 153.7 106.27 158.367 105.945 159.494 104.97 162.391 102.533 160.138 100.42 159.011 98.6328 158.045 97.008 153.378 93.2706 150.803 90.1836 148.228 87.2586 143.56 84.6588 145.009 82.059 146.135 80.109 144.365 75.3966 143.399 72.7968 142.434 70.1964 138.41 63.0468 138.41 63.0468 138.41 63.0468 139.537 60.1218 142.273 59.7971 145.009 59.4721 144.687 57.6847 145.814 56.0597 146.94 54.4348 145.975 51.6724 144.204 51.3475 142.434 51.0224 141.951 48.7475 141.951 48.7475 141.951 48.7475 142.273 46.1477 139.215 42.5728 136.157 38.998 136.479 43.2227 135.352 42.8978 134.065 42.5728 130.685 40.2979 130.685 40.2979 130.685 40.2979 125.052 35.2606 126.661 33.9607 128.271 32.6607 119.419 29.0858 121.189 29.0858 123.121 29.0858 109.762 27.7859 109.762 27.7859 109.762 27.7859 108.797 26.4859 105.417 25.511 102.037 24.536 94.6338 25.511 90.9324 26.161 87.2304 26.8109 85.4604 27.1359 81.1146 27.7859 76.7694 28.4359 72.102 30.3858 68.5614 32.9857 64.8594 35.5856 57.1345 38.8354 53.2718 41.7603 49.2483 44.6852 46.1904 52.4849 44.0981 58.4972 41.845 64.6722 39.7527 71.9844 39.7527 81.8964 39.7527 89.2086 37.8214 88.5582 35.7292 90.996 32.1884 95.2206 32.8322 99.2832 32.8322 99.2832 32.8322 99.2832 30.9009 100.42 30.2571 103.508 29.6134 106.433 27.0383 115.532 29.1305 116.507 31.3837 117.482 29.7743 122.519 29.7743 122.519 29.7743 122.519 22.5319 132.757 25.1069 135.356 34.6025 144.944 30.579 142.181 28.4867 148.681 26.3945 155.181 28.1648 154.856 23.1757 161.356 18.3474 167.693 8.5299 184.267 8.36898 189.629L0 189.629 0 6.66174Z" fill="#F3CA12" transform="scale(1 1.00064)"/><path d="M269.741 375.036 269.741 336.525 260.567 336.525 250.75 363.499 241.094 336.525 231.92 336.525 231.92 375.036 238.84 375.036 238.84 350.662 247.531 375.036 254.13 375.036 262.821 350.662 262.821 375.036 269.741 375.036Z" fill="#2C4255" transform="scale(1 1.00064)"/><path d="M309.815 375.034 295.974 336.686 289.537 336.686 275.695 375.034 283.099 375.034 285.995 366.91 299.515 366.91 302.573 375.034 309.815 375.034ZM292.755 348.061 297.101 359.923 288.571 359.923 292.755 348.061Z" fill="#2C4255" fill-rule="evenodd" transform="scale(1 1.00064)"/><path d="M338.299 343.513 338.299 336.525 308.203 336.525 308.203 343.513 319.791 343.513 319.791 375.036 326.711 375.036 326.711 343.513 338.299 343.513Z" fill="#2C4255" transform="scale(1 1.00064)"/><path d="M375.157 375.036 375.157 336.525 368.236 336.525 368.236 352.287 351.016 352.287 351.016 336.525 344.256 336.525 344.256 375.036 351.016 375.036 351.016 359.274 368.236 359.274 368.236 375.036 375.157 375.036Z" fill="#2C4255" transform="scale(1 1.00064)"/><path d="M393.021 375.036 393.021 336.525 386.262 336.525 386.262 375.036 393.021 375.036Z" fill="#2C4255" transform="scale(1 1.00064)"/><path d="M432.616 375.034 418.775 336.686 412.337 336.686 398.496 375.034 405.899 375.034 408.796 366.91 422.315 366.91 425.374 375.034 432.616 375.034ZM415.395 348.061 419.74 359.923 411.211 359.923 415.395 348.061Z" fill="#2C4255" fill-rule="evenodd" transform="scale(1 1.00064)"/><path d="M454.981 359.759C458.361 360.572 459.971 362.034 459.971 363.984 459.971 365.609 459.005 366.909 457.235 367.721 455.786 368.371 453.855 368.858 451.441 368.858 449.188 368.858 447.256 368.534 445.647 367.721 443.716 366.909 442.911 365.122 442.911 362.684L435.99 362.684C435.99 367.396 437.761 370.808 441.301 373.084 444.199 374.871 447.578 375.846 451.28 375.846 455.143 375.846 458.522 375.034 461.419 373.246 464.96 370.971 466.73 367.883 466.73 364.147 466.73 359.272 464.316 356.022 459.649 354.234 458.683 353.909 449.509 352.122 448.544 351.959 445.164 351.147 443.555 349.684 443.555 347.572 443.555 346.109 444.359 344.81 445.969 343.997 447.417 343.185 449.188 342.86 451.119 342.86 453.211 342.86 454.981 343.185 456.43 343.997 458.039 344.81 458.844 346.435 458.844 348.872L465.764 348.872C465.764 344.322 464.155 340.91 460.775 338.797 458.039 336.848 454.82 335.873 451.119 335.873 447.578 335.873 444.359 336.848 441.462 338.797 438.082 341.072 436.473 343.997 436.473 347.735 436.473 352.609 438.565 356.184 443.393 357.809 445.647 358.134 454.981 359.759 454.981 359.759Z" fill="#2C4255" transform="scale(1 1.00064)"/><path d="M531.912 368.21 527.888 364.31C524.669 367.397 521.451 369.022 517.91 369.022 514.369 369.022 511.312 367.723 508.736 365.123 506.161 362.523 504.874 359.435 504.874 355.861 504.874 352.286 506.161 349.198 508.736 346.598 511.312 343.999 514.369 342.698 517.91 342.698 521.451 342.698 524.669 344.161 527.888 347.248L532.877 342.374C528.371 337.824 523.382 335.549 517.91 335.549 512.438 335.549 507.77 337.499 503.747 341.561 499.885 345.461 497.953 350.173 497.953 355.698 497.953 361.223 499.885 365.935 503.747 369.835 507.61 373.735 512.277 375.685 517.91 375.685 523.382 375.685 528.049 373.735 531.912 369.835L531.912 368.21Z" fill="#2C4255" transform="scale(1 1.00064)"/><path d="M612.87 375.036C612.87 375.036 602.892 359.599 602.568 359.112 602.244 358.624 601.926 358.299 601.602 357.974 603.048 357.324 604.5 356.187 605.628 354.887 607.398 352.774 608.202 350.5 608.202 347.9 608.202 344.65 606.912 341.887 604.338 339.613 601.926 337.5 599.027 336.525 595.808 336.525L579.392 336.525 579.392 374.873 586.313 374.873 586.313 359.112 590.498 359.112C593.072 359.112 595.004 359.924 595.97 361.712L604.5 374.873 612.87 374.873 612.87 375.036ZM601.44 347.9C601.44 349.199 600.96 350.174 599.832 350.987 598.706 351.8 597.418 352.287 596.131 352.287L586.635 352.287 586.635 343.513 596.131 343.513C597.579 343.513 598.867 344 599.832 344.812 600.798 345.625 601.44 346.6 601.44 347.9Z" fill="#2C4255" fill-rule="evenodd" transform="scale(1 1.00064)"/><path d="M645.858 336.525 638.454 336.525 628.638 363.499 618.984 336.525 611.58 336.525 625.578 375.036 632.016 375.036 645.858 336.525Z" fill="#2C4255" transform="scale(1 1.00064)"/><path d="M657.93 375.036 657.93 336.525 651.012 336.525 651.012 375.036 657.93 375.036Z" fill="#2C4255" transform="scale(1 1.00064)"/><path d="M699.612 375.036 699.612 336.525 692.694 336.525 692.694 361.712 674.988 336.525 668.712 336.525 668.712 375.036 675.636 375.036 675.636 349.85 693.336 375.036 699.612 375.036Z" fill="#2C4255" transform="scale(1 1.00064)"/><path d="M740.334 360.249 740.334 336.525 733.416 336.525 733.416 360.249C733.416 362.687 732.612 364.637 731.004 366.424 729.234 368.049 727.302 368.861 724.884 368.861 722.472 368.861 720.54 368.049 718.77 366.424 717.162 364.637 716.358 362.687 716.358 360.249L716.358 336.525 709.434 336.525 709.434 360.249C709.434 364.474 710.886 368.212 713.94 371.299 717 374.386 720.702 375.848 724.884 375.848 729.072 375.848 732.774 374.386 735.828 371.299 738.888 368.212 740.334 364.474 740.334 360.249Z" fill="#2C4255" transform="scale(1 1.00064)"/><path d="M844.464 368.21 840.438 364.31C837.222 367.397 834 369.022 830.46 369.022 826.92 369.022 823.86 367.723 821.286 365.123 818.712 362.523 817.422 359.435 817.422 355.861 817.422 352.286 818.712 349.198 821.286 346.598 823.86 343.999 826.92 342.698 830.46 342.698 834 342.698 837.222 344.161 840.438 347.248L845.43 342.374C840.924 337.824 835.932 335.549 830.46 335.549 824.988 335.549 820.32 337.499 816.3 341.561 812.436 345.461 810.504 350.173 810.504 355.698 810.504 361.223 812.436 365.935 816.3 369.835 820.158 373.735 824.826 375.685 830.46 375.685 835.932 375.685 840.6 373.735 844.464 369.835L844.464 368.21Z" fill="#2C4255" transform="scale(1 1.00064)"/><path d="M889.044 355.859C889.044 350.335 887.112 345.622 883.254 341.722 879.39 337.822 874.722 335.873 869.25 335.873 863.778 335.873 859.11 337.822 855.084 341.722 851.226 345.622 849.294 350.335 849.294 355.859 849.294 361.384 851.226 366.096 855.084 369.996 858.948 373.896 863.616 375.846 869.25 375.846 874.722 375.846 879.39 373.896 883.254 369.996 887.112 366.096 889.044 361.384 889.044 355.859ZM882.126 355.859C882.126 359.434 880.836 362.521 878.262 365.122 875.688 367.721 872.628 369.021 869.088 369.021 865.548 369.021 862.488 367.721 859.914 365.122 857.34 362.521 856.05 359.434 856.05 355.859 856.05 352.285 857.34 349.197 859.914 346.597 862.488 343.997 865.548 342.697 869.088 342.697 872.628 342.697 875.688 343.997 878.262 346.597 880.836 349.034 882.126 352.122 882.126 355.859Z" fill="#2C4255" fill-rule="evenodd" transform="scale(1 1.00064)"/><path d="M918.336 375.036 918.336 368.049 902.4 368.049 902.4 336.525 895.482 336.525 895.482 375.036 918.336 375.036Z" fill="#2C4255" transform="scale(1 1.00064)"/><path d="M946.824 375.036 946.824 368.049 930.726 368.049 930.726 336.525 923.808 336.525 923.808 375.036 946.824 375.036Z" fill="#2C4255" transform="scale(1 1.00064)"/><path d="M979.014 375.036 979.014 368.049 958.41 368.049 958.41 359.274 974.508 359.274 974.508 352.287 958.41 352.287 958.41 343.513 979.014 343.513 979.014 336.525 951.492 336.525 951.492 375.036 979.014 375.036Z" fill="#2C4255" transform="scale(1 1.00064)"/><path d="M1020.37 366.1 1020.37 352.288 1002.35 352.288 1002.35 359.275 1013.45 359.275 1013.45 364.312C1010.87 367.399 1007.66 368.862 1003.48 368.862 999.93 368.862 996.876 367.562 994.302 364.962 991.722 362.362 990.438 359.275 990.438 355.7 990.438 352.125 991.722 349.037 994.302 346.438 996.876 343.838 999.93 342.538 1003.48 342.538 1005.56 342.538 1007.5 343.025 1009.43 344.163 1011.36 345.3 1013.13 346.763 1014.58 348.713L1020.21 344.65C1018.12 341.725 1015.54 339.451 1012.49 337.825 1009.59 336.2 1006.53 335.388 1003.31 335.388 997.842 335.388 993.174 337.338 989.148 341.401 985.284 345.3 983.358 350.012 983.358 355.537 983.358 361.062 985.284 365.774 989.148 369.674 993.012 373.574 997.68 375.524 1003.31 375.524 1004.92 375.524 1006.53 375.362 1008.14 374.874 1009.75 374.387 1011.2 373.899 1012.64 373.087 1014.1 372.274 1015.38 371.299 1016.67 370.162 1017.96 369.024 1018.93 367.724 1019.89 366.424L1020.37 366.1Z" fill="#2C4255" transform="scale(1 1.00064)"/><path d="M1035.98 375.036 1035.98 336.525 1029.07 336.525 1029.07 375.036 1035.98 375.036Z" fill="#2C4255" transform="scale(1 1.00064)"/><path d="M1075.9 360.249 1075.9 336.525 1068.98 336.525 1068.98 360.249C1068.98 362.687 1068.17 364.637 1066.56 366.424 1064.79 368.049 1062.86 368.861 1060.45 368.861 1058.03 368.861 1056.1 368.049 1054.33 366.424 1052.72 364.637 1051.91 362.687 1051.91 360.249L1051.91 336.525 1045 336.525 1045 360.249C1045 364.474 1046.44 368.212 1049.5 371.299 1052.56 374.386 1056.26 375.848 1060.45 375.848 1064.63 375.848 1068.33 374.386 1071.39 371.299 1074.45 368.212 1075.9 364.474 1075.9 360.249Z" fill="#2C4255" transform="scale(1 1.00064)"/><path d="M1122.58 375.036 1122.58 336.525 1113.4 336.525 1103.74 363.499 1093.93 336.525 1084.75 336.525 1084.75 375.036 1091.67 375.036 1091.67 350.662 1100.53 375.036 1106.96 375.036 1115.65 350.662 1115.65 375.036 1122.58 375.036Z" fill="#2C4255" transform="scale(1 1.00064)"/><path d="M766.086 359.759C769.464 360.572 771.072 362.034 771.072 363.984 771.072 365.609 770.106 366.909 768.336 367.721 766.89 368.371 764.958 368.858 762.546 368.858 760.29 368.858 758.358 368.534 756.75 367.721 754.818 366.909 754.014 365.122 754.014 362.684L747.096 362.684C747.096 367.396 748.866 370.808 752.406 373.084 755.304 374.871 758.682 375.846 762.384 375.846 766.248 375.846 769.626 375.034 772.524 373.246 776.064 370.971 777.834 367.883 777.834 364.147 777.834 359.272 775.422 356.022 770.754 354.234 769.788 353.909 760.614 352.122 759.648 351.959 756.27 351.147 754.656 349.684 754.656 347.572 754.656 346.109 755.46 344.81 757.074 343.997 758.52 343.185 760.29 342.86 762.222 342.86 764.316 342.86 766.086 343.185 767.532 343.997 769.14 344.81 769.95 346.435 769.95 348.872L776.868 348.872C776.868 344.322 775.26 340.91 771.876 338.797 769.14 336.848 765.924 335.873 762.222 335.873 758.682 335.873 755.46 336.848 752.568 338.797 749.184 341.072 747.576 343.997 747.576 347.735 747.576 352.609 749.67 356.184 754.5 357.809 756.75 358.134 766.086 359.759 766.086 359.759Z" fill="#2C4255" transform="scale(1 1.00064)"/><path d="M542.051 355.859C542.051 348.71 547.846 342.86 554.927 342.86 562.009 342.86 567.802 348.71 567.802 355.859 567.802 363.009 562.009 368.858 554.927 368.858 547.846 368.858 542.051 363.009 542.051 355.859ZM574.884 355.859C574.884 350.335 572.953 345.622 569.09 341.722 565.227 337.822 560.56 335.873 555.088 335.873 549.616 335.873 544.948 337.822 540.925 341.722 537.062 345.622 535.131 350.335 535.131 355.859 535.131 361.384 537.062 366.096 540.925 369.996 544.787 373.896 549.455 375.846 555.088 375.846 560.56 375.846 565.227 373.896 569.09 369.996 572.953 366.096 574.884 361.384 574.884 355.859Z" fill="#2C4255" fill-rule="evenodd" transform="scale(1 1.00064)"/><path d="M533.204 6.66174 533.204 312.637 463.355 312.637 463.355 173.543 413.141 312.637 351.983 312.637 301.769 172.892 301.769 312.637 231.92 312.637 231.92 6.66174 316.093 6.66174 382.401 190.604 449.031 6.66174 533.204 6.66174Z" fill="#2C4255" transform="scale(1 1.00064)"/><path d="M1083.14 209.942 1122.57 248.29 1122.57 270.064C1090.39 302.563 1054.66 319.137 1008.79 319.137 920.592 319.137 850.74 248.453 850.74 159.569 850.74 71.172 921.234 0 1008.79 0 1060.93 0 1098.11 24.2115 1134 59.9601L1083.14 108.871C1061.74 87.7464 1040.17 70.6848 1008.62 70.6848 984.162 70.6848 963.72 79.2966 946.662 96.6834 929.118 114.721 920.592 135.357 920.592 159.406 920.592 183.78 929.28 204.417 946.824 221.966 964.206 239.678 984.642 248.453 1008.79 248.453 1040.01 248.453 1062.06 230.903 1083.14 209.942Z" fill="#2C4255" transform="scale(1 1.00064)"/><path d="M793.446 209.942 832.878 248.29 832.878 270.064C800.688 302.563 764.958 319.137 719.094 319.137 630.894 319.137 561.047 248.453 561.047 159.569 561.047 71.172 631.542 0 719.094 0 771.24 0 808.416 24.2115 844.308 59.9601L793.446 108.871C772.044 87.7464 750.474 70.6848 718.932 70.6848 694.47 70.6848 674.028 79.2966 656.97 96.6834 639.426 114.721 630.894 135.357 630.894 159.406 630.894 183.78 639.588 204.417 657.132 221.966 674.514 239.678 694.95 248.453 719.094 248.453 750.312 248.453 772.362 230.903 793.446 209.942Z" fill="#2C4255" transform="scale(1 1.00064)"/></g></g></g><path d="M165.969 51.7418C165.16 53.1133 164.394 54.5131 163.67 55.9413 162.947 57.3695 162.351 58.7694 161.883 60.1408 161.32 61.29 160.8 62.5101 160.322 63.8012 159.845 65.0922 159.381 66.3691 158.932 67.6318L160.975 63.9998C162.19 61.9568 163.164 59.9138 163.897 57.8708 164.63 55.8278 165.321 53.7848 165.969 51.7418ZM-13.4071 40.7797C-13.5159 40.8839-13.5821 40.9596-13.6058 41.007-13.6294 41.0543-13.6389 41.1301-13.6342 41.2343-13.5254 41.1301-13.4591 41.0543-13.4354 41.007-13.4118 40.9596-13.4023 40.8839-13.4071 40.7797ZM169.601 31.5388C169.762 32.8441 169.554 34.2628 168.977 35.7951 168.4 37.3273 167.851 38.6326 167.331 39.7108 166.886 40.4155 166.527 41.2762 166.253 42.2929 165.978 43.3097 165.732 44.3407 165.515 45.3858L169.601 35.3978C169.814 34.8114 169.899 34.1682 169.856 33.4683 169.814 32.7684 169.729 32.1252 169.601 31.5388ZM166.423 16.3298C161.67 20.7469 157.158 25.3058 152.888 30.0066 148.618 34.7074 144.503 39.6068 140.545 44.7048 136.54 49.5711 132.636 54.707 128.833 60.1124 125.031 65.5179 122.207 71.278 120.361 77.3928 119.868 79.2312 119.72 81.6582 119.916 84.6736 120.111 87.6891 120.887 90.2505 122.241 92.358 123.595 94.4655 125.764 95.0764 128.747 94.1908 131.118 93.2402 133.178 91.5094 134.927 88.9982 136.676 86.487 138.171 84.1319 139.41 81.9328 142.399 76.901 145.047 71.7556 147.355 66.4968 147.364 66.4826 147.402 66.3975 147.468 66.2414 147.535 66.0854 147.572 65.9435 147.582 65.8158 147.577 65.8064 147.587 65.7685 147.61 65.7023 147.634 65.6361 147.7 65.5983 147.809 65.5888L147.809 65.3618 148.717 63.5458 148.717 63.3188C152.093 55.5866 155.215 47.7835 158.081 39.9094 160.946 32.0354 163.727 24.1755 166.423 16.3298ZM22.251-26.2732C21.8015-25.0088 21.3945-23.7303 21.0302-22.4375 20.6659-21.1448 20.3157-19.9231 19.9798-18.7724 20.4293-19.9089 20.8362-21.1022 21.2005-22.3523 21.5649-23.6024 21.915-24.9094 22.251-26.2732ZM23.6137-29.0008 23.3866-28.7735C23.396-28.7687 23.4339-28.7782 23.5001-28.8019 23.5664-28.8256 23.6042-28.8919 23.6137-29.0008ZM12.0305-33.5467C12.0778-32.3203 11.4722-30.2272 10.2135-27.2676 8.95492-24.308 8.12214-22.3855 7.71521-21.4999 5.84619-16.8451 3.9062-12.176 1.89524-7.4927-0.115736-2.80942-1.88539 1.91648-3.41373 6.685-5.05562 11.9176-6.7685 17.2496-8.55234 22.6811-10.3362 28.1126-11.8787 33.6151-13.1799 39.1886-12.1484 35.1967-10.975 31.2474-9.65956 27.3407-8.34415 23.434-6.94357 19.6552-5.45782 16.0042-3.63611 11.6761-1.88539 7.26272-0.205635 2.76412 1.47412-1.73449 3.0545-6.2615 4.53552-10.8169 5.21215-12.9763 5.90298-15.1356 6.608-17.2949 7.31302-19.4543 8.06063-21.6136 8.85082-23.7729 9.4754-25.1604 10.1568-26.6473 10.8949-28.2336 11.6331-29.82 12.0873-31.3637 12.2576-32.8648L12.2576-33.0921C12.2624-33.0969 12.2529-33.1442 12.2292-33.2342 12.2056-33.3242 12.1394-33.4283 12.0305-33.5467ZM92.398-37.4108C92.029-37.1977 91.6315-36.9988 91.2057-36.8141 90.7799-36.6295 90.496-36.3737 90.3541-36.047ZM46.6153-53.8295C46.6058-53.8437 46.575-53.826 46.523-53.7762 46.5277-53.6721 46.5183-53.5963 46.4946-53.5489 46.471-53.5016 46.4047-53.4258 46.2959-53.3216L46.2959-53.0943C46.4189-53.3358 46.5135-53.5347 46.5798-53.691 46.6129-53.7691 46.6247-53.8153 46.6153-53.8295ZM34.1837-58.0124 34.0613-57.6403 34.0613-57.8676ZM34.5155-58.7768C34.5108-58.5542 34.4635-58.3743 34.3736-58.237L34.1837-58.0124 34.2802-58.3058ZM432.861-62.1838C432.038-61.2282 430.902-59.5074 429.454-57.0213 428.006-54.5353 426.417-51.5695 424.685-48.124L426.048-50.1572C425.773-49.3832 424.649-46.8819 422.676-42.6533 420.703-38.4246 418.849-33.7241 417.114-28.5515 415.378-23.379 414.729-18.9899 415.166-15.3841 415.604-11.7784 418.095-10.2114 422.641-10.6832L422.868-10.6832C428.18-11.7944 433.05-14.2381 437.479-18.0144 441.908-21.7908 445.819-26.1346 449.214-31.0459 452.608-35.9573 455.409-40.671 457.617-45.1872 452.37-45.7791 447.307-47.3627 442.428-49.938 437.55-52.5132 434.361-56.5952 432.861-62.1838ZM36.1054-62.6408 35.424-60.8225C35.5376-61.2818 35.6511-61.6701 35.7647-61.9874 35.8782-62.3046 35.9918-62.5225 36.1054-62.6408ZM53.3361-63.55C52.546-62.5177 51.7984-61.457 51.0935-60.3679 50.3885-59.2787 49.6977-58.218 49.0211-57.1857ZM270.846-78.7548C269.839-76.4801 268.902-74.2195 268.037-71.9732 267.171-69.7268 266.292-67.523 265.398-65.3618 267.252-69.41 268.992-73.5716 270.619-77.8468 270.581-78.036 270.657-78.3386 270.846-78.7548ZM452.166-88.527C452.157-88.418 452.119-88.3517 452.053-88.328 451.986-88.3043 451.948-88.2948 451.939-88.2996ZM335.88-97.1454C335.871-97.0274 335.833-96.9236 335.767-96.834 335.7-96.7443 335.663-96.6972 335.653-96.6924 335.663-96.7962 335.7-96.8717 335.767-96.9189 335.833-96.9661 335.871-97.0416 335.88-97.1454ZM464.542-98.6937C464.05-98.6847 463.542-98.5826 463.017-98.3872 460.919-97.6058 458.883-96.1814 456.91-94.114 454.938-92.0465 453.356-90.1842 452.166-88.527 452.057-88.5175 451.991-88.4796 451.967-88.4133 451.944-88.3469 451.934-88.3091 451.939-88.2996L451.712-87.8448 451.712-88.0722C451.589-87.8448 451.494-87.6743 451.428-87.5606 451.362-87.4469 451.381-87.39 451.485-87.39 450.912-86.6226 450.297-85.8268 449.639-85.0025 448.982-84.1782 448.31-83.155 447.624-81.9328 447.832-82.2265 448.324-82.9466 449.1-84.093 449.876-85.2394 450.368-85.732 450.576-85.571 450.737-84.6428 450.188-82.9768 448.93-80.573 447.671-78.1692 446.782-76.5038 446.261-75.5768 445.57-73.7655 444.965-71.9401 444.444-70.1004 443.924-68.2608 443.545-66.3786 443.309-64.4538 443.006-62.4818 442.93-60.5239 443.081-58.5802 443.233-56.6365 444.066-54.9624 445.58-53.5578 446.521-52.7822 447.647-52.2337 448.958-51.9121 450.269-51.5905 451.565-51.3824 452.847-51.2878 453.595-51.1508 454.541-51.0281 455.686-50.9198 456.832-50.8114 457.778-50.8584 458.525-51.0608 459.562-51.2028 460.158-51.3164 460.314-51.4017 460.47-51.487 460.782-52.0544 461.251-53.1038 462.907-56.0406 464.194-59.3605 465.112-63.0634 466.03-66.7664 466.863-70.2565 467.61-73.5338 468.357-76.594 469.076-80.3517 469.765-84.807 470.454-89.2624 470.039-93.0794 468.519-96.258 467.342-97.9087 466.016-98.7206 464.542-98.6937ZM320.043-113.682 317.966-112.301C317.252-111.929 316.527-111.653 315.792-111.471 314.293-111.121 312.751-111.139 311.167-111.526 309.582-111.913 308.097-112.046 306.712-111.923 305.998-111.688 305.553-111.423 305.378-111.13 305.203-110.837 304.815-110.572 304.215-110.336 303.174-110.019 302.077-109.858 300.923-109.853 299.769-109.848 298.672-109.858 297.632-109.882 296.005-109.981 293.981-110.18 291.56-110.478 289.138-110.776 287.228-110.577 285.828-109.882 285.374-109.655 284.92-109.2 284.466-108.519L285.147-109.882C284.433-109.603 283.591-108.344 282.621-106.107 281.652-103.87 280.753-101.646 279.926-99.4374L282.423-104.432 279.245-95.8046C278.115-93.4111 277.027-90.9893 275.982-88.539 274.937-86.0888 273.906-83.6669 272.889-81.2735 270.855-76.5197 268.907-71.78 267.044-67.0546 265.18-62.3291 263.345-57.5327 261.539-52.6654 258.432-43.7868 255.452-34.7522 252.601-25.5615 249.749-16.3707 247.28-7.16581 245.195 2.05331 244.898 3.24461 244.46 5.1507 243.881 7.77156 243.302 10.3924 242.999 12.9376 242.971 15.4071 242.944 17.8766 243.609 19.48 244.968 20.2172 245.497 20.3137 246.481 20.0007 247.919 19.2782 249.356 18.5557 250.113 18.1875 250.189 18.1738 250.766 17.6109 251.371 17.0338 252.005 16.4425 252.639 15.8512 253.244 15.2174 253.821 14.541 253.282 14.962 252.601 15.4823 251.778 16.1019 250.955 16.7216 250.501 16.9581 250.416 16.8115 250.525 15.9931 251.442 14.7917 253.168 13.2071 254.894 11.6225 256.096 10.4778 256.772 9.77296 257.902 8.62826 258.99 7.45517 260.035 6.25371 261.08 5.05224 262.111 3.87916 263.128 2.73445L276.294-13.3864C280.361-18.5045 284.371-23.6509 288.325-28.8257 292.278-34.0005 296.289-39.147 300.356-44.265 301.09-45.3187 302.024-46.7155 303.157-48.4557L303.371-48.7862 303.419-49.0462C305.339-59.7292 307.628-70.3671 310.286-80.9599 312.944-91.5527 316.027-102.016 319.536-112.351ZM353.122-115.302C352.479-114.621 351.95-113.94 351.535-113.259 351.757-113.5 351.993-113.812 352.243-114.195 352.494-114.578 352.786-114.947 353.122-115.302ZM293.319-125.744C292.969-124.826 292.591-123.937 292.184-123.077 291.777-122.216 291.399-121.44 291.049-120.75ZM308.528-161.61C299.618-148.642 291.9-134.909 285.374-120.409 278.848-105.91 272.492-91.4952 266.306-77.1658 262.556-68.8708 259.103-60.434 255.949-51.8553 252.795-43.2766 249.967-34.6128 247.465-25.8638 245.23-17.9566 243.344-9.93598 241.806-1.80181L242.925-6.11481C244.192-11.4588 245.687-16.7744 247.408-22.0616 249.129-27.3488 250.964-32.5509 252.913-37.6678 256.937-48.9516 261.033-60.2638 265.199-71.6043 269.366-82.9448 273.972-94.03 279.018-104.86 283.454-114.574 287.975-124.259 292.581-133.916 297.187-143.573 302.503-152.804 308.528-161.61ZM386.034-207.464C385.813-207.315 384.579-205.172 382.332-201.033 380.085-196.895 377.468-191.992 374.479-186.324 371.491-180.657 368.774-175.456 366.329-170.722 363.884-165.987 362.353-162.95 361.736-161.61 359.394-156.871 356.938-152.161 354.368-147.479 351.799-142.797 349.57-137.973 347.681-133.008 345.531-127.125 343.309-121.242 341.016-115.359 338.722-109.476 337.01-103.48 335.88-97.3719L335.653-96.6924C335.497-95.9988 335.299-95.0646 335.057-93.8897 334.816-92.7148 334.788-92.0637 334.972-91.9363 334.856-92.2904 335.492-94.4301 336.881-98.3553 338.269-102.28 339.746-106.319 341.311-110.471 342.877-114.624 343.866-117.217 344.279-118.253 345.229-120.603 346.278-122.883 347.426-125.091 348.574-127.3 349.566-129.636 350.401-132.1 351.313-134.691 352.324-137.169 353.433-139.534 354.543-141.899 355.724-144.263 356.975-146.628 357.855-148.475 359.868-152.484 363.015-158.655 366.161-164.826 369.587-171.609 373.291-179.004 376.995-186.398 380.123-192.855 382.674-198.373 385.226-203.892 386.345-206.922 386.034-207.464ZM401.572-218.126C400.283-218.253 398.947-217.423 397.562-215.636 395.717-213.252 394.297-211.209 393.303-209.507 393.407-209.606 393.426-209.578 393.36-209.422 393.294-209.266 393.199-209.067 393.076-208.826L393.076-209.053C393.066-208.944 393.029-208.878 392.962-208.854 392.896-208.831 392.858-208.821 392.849-208.826L393.076-208.826 392.849-208.599C392.839-208.49 392.801-208.424 392.735-208.4 392.669-208.377 392.631-208.367 392.621-208.372 388.556-201.869 384.704-195.182 381.064-188.311 377.425-181.439 373.856-174.582 370.359-167.739 367.134-161.477 363.882-155.159 360.604-148.784 357.325-142.409 354.302-136.091 351.535-129.83 351.88-130.416 352.21-130.946 352.527-131.419 352.843-131.892 353.117-132.194 353.348-132.327 353.294-132.17 352.874-130.996 352.089-128.804 351.304-126.613 350.481-124.345 349.621-122.003 348.76-119.66 348.189-118.183 347.908-117.572L341.101-99.6388C349.27-108.284 356.859-117.383 363.869-126.936 370.879-136.488 377.283-146.382 383.08-156.616 380.809-152.856 378.48-149.139 376.095-145.464 373.71-141.79 371.268-138.243 368.769-134.824L359.696-122.112 355.615-118.026 357.429-120.069C359.658-122.793 361.774-125.517 363.776-128.241 365.709-130.97 367.629-133.741 369.536-136.555 371.443-139.369 373.307-142.197 375.129-145.039 378.892-150.931 382.441-156.909 385.778-162.972 389.115-169.035 392.153-175.239 394.893-181.586 396.275-184.877 397.6-188.226 398.869-191.631 400.137-195.036 401.235-198.497 402.163-202.016 402.787-203.988 403.411-206.684 404.034-210.103 404.657-213.522 404.261-216.047 402.844-217.679 402.425-217.934 402.001-218.083 401.572-218.126ZM401.254-231.526C402.749-231.521 404.186-231.247 405.563-230.703 406.941-230.159 408.148-229.374 409.185-228.348 409.817-227.638 410.703-226.163 411.845-223.921 412.986-221.68 413.306-220.204 412.805-219.495 412.762-219.637 412.564-220.204 412.211-221.197 411.857-222.19 411.603-222.758 411.447-222.9 412.112-221.065 412.536-219.173 412.72-217.225 412.904-215.276 412.932-213.385 412.805-211.55 412.909-211.777 412.985-211.947 413.032-212.061 413.079-212.174 413.155-212.231 413.259-212.231 413.571-211.984 413.401-210.157 412.749-206.749 412.096-203.341 411.356-199.833 410.527-196.223 409.698-192.614 409.175-190.383 408.958-189.531 407.813-185.558 406.483-181.643 404.968-177.784 403.452-173.925 401.836-170.122 400.118-166.377 396.27-158.337 391.983-150.298 387.255-142.258 382.527-134.218 377.273-126.746 371.495-119.842 370.326-118.612 369.086-117.496 367.775-116.494 366.465-115.491 365.283-114.488 364.23-113.486 363.124-112.214 362.104-110.842 361.169-109.371 360.234-107.901 359.214-106.472 358.109-105.087 352.179-98.2803 345.904-91.9338 339.285-86.0472 337.417-84.3258 335.989-82.7179 335.001-81.2234 334.012-79.729 333.095-77.7806 332.248-75.3782 331.463-72.99 330.706-70.6159 329.978-68.2561 329.25-65.8962 328.493-63.5789 327.708-61.3042 324.757-52.262 322.033-43.1064 319.536-33.8372 323.395-39.7014 327.481-45.452 331.794-51.0892 330.295-49.3536 329.094-47.9443 328.191-46.8613 327.287-45.7783 326.824-45.2203 326.8-45.1872 326.829-45.4171 328.246-47.2982 331.051-50.8303 333.856-54.3624 337.194-58.5063 341.066-63.2621 344.938-68.0178 348.489-72.3462 351.719-76.2472 354.949-80.1481 357.003-82.5825 357.882-83.5502 360.2-86.192 362.998-89.0944 366.277-92.2571 369.555-95.4198 373.012-97.4992 376.645-98.4951 380.279-99.491 383.787-98.0597 387.169-94.2011 389.782-90.6289 390.577-86.8979 389.555-83.008 388.532-79.1182 387.056-75.4399 385.125-71.9732 382.068-65.6503 378.982-59.0578 375.868-52.1958 372.754-45.3338 370.236-38.6846 368.314-32.2482 368.456-32.5083 368.74-33.1231 369.166-34.0926 369.592-35.062 369.99-35.5066 370.359-35.4262 370.851-34.3716 370.548-32.111 369.45-28.6446 368.352-25.1781 367.595-22.7473 367.178-21.3522 366.966-20.3118 366.71-18.5904 366.413-16.1879 366.115-13.7855 366.37-12.1776 367.178-11.3642 368.769-10.6028 370.586-11.1041 372.631-12.8681 374.675-14.632 376.265-16.0981 377.401-17.2662 381.476-21.2623 385.423-25.4145 389.242-29.7228L399.918-41.9416 405.145-52.8864C406.906-56.7773 409.106-60.5574 411.746-64.2268 413.318-66.1799 414.991-68.0622 416.765-69.8734 418.539-71.6847 420.497-73.2832 422.641-74.6688 424.458-76.0308 426.502-77.1658 428.773-78.0738 429.653-78.4994 430.732-78.8399 432.009-79.0953 433.287-79.3507 434.252-79.6912 434.905-80.1168 435.596-80.7603 436.258-82.086 436.892-84.0939 437.526-86.1019 438.075-87.6553 438.539-88.7543 438.998-89.6686 439.5-90.5687 440.044-91.4545 440.588-92.3404 441.146-93.1836 441.719-93.9842 443.304-96.2953 445.073-98.4893 447.028-100.566 448.982-102.643 451.149-104.379 453.529-105.774 457.433-107.776 461.208-108.079 464.854-106.682 468.5-105.285 471.76-103.097 474.632-100.117 474.797-100.041 475.429-99.5687 476.527-98.699 477.625-97.8294 478.2-97.0157 478.252-96.258L477.347-97.1676 478.252-95.3485 478.479-95.1211C478.267-95.8506 478.522-95.8127 479.245-95.0074 479.969-94.2021 480.394-93.7094 480.522-93.5294 481.085-92.6152 481.548-91.6582 481.912-90.6587 482.276-89.6592 482.57-88.6454 482.792-87.6174 483.118-86.0162 483.26-84.3871 483.217-82.7301 483.175-81.0731 483.033-79.4453 482.792-77.8468 482.305-73.6331 481.52-69.4053 480.437-65.1632 479.355-60.9211 478.174-56.75 476.894-52.6498 480.302-53.2315 483.696-53.8841 487.077-54.6077L488.984-55.013 490.152-58.5518C491.011-60.8691 491.898-63.2148 492.814-65.5888 494.362-70.3558 496.023-75.1228 497.798-79.8898 498.421-81.389 499.157-82.9874 500.007-84.6852 500.856-86.3829 501.479-88.0382 501.876-89.6508 502.113-90.8757 502.321-91.9445 502.501-92.8572 502.681-93.7699 503.458-94.6684 504.831-95.5528 506.2-96.3142 507.611-96.7209 509.065-96.7729 510.519-96.825 511.987-96.7209 513.468-96.4608 515.566-96.0919 517.564-95.0137 519.461-93.2261 521.359-91.4384 521.483-89.1117 519.835-86.2458 518.996-85.2196 518.002-84.1508 516.85-83.0394 515.699-81.9281 514.648-80.8025 513.696-79.6628 512.744-78.4805 512.147-77.4401 511.905-76.5416 511.664-75.643 511.351-74.4891 510.967-73.0798 510.693-72.1813 510.219-71.3111 509.546-70.4693 508.874-69.6275 508.286-68.7573 507.784-67.8588 507.112-66.5914 506.524-65.2105 506.022-63.7161 505.52-62.2216 505.047-60.7272 504.601-59.2328 504.398-58.3437 504.293-57.5114 504.289-56.7358 504.284-55.9602 504.237-55.1279 504.147-54.2388 503.873-51.8553 503.46-49.4718 502.909-47.0883 502.358-44.7048 501.948-42.3213 501.677-39.9378 501.845-40.4438 502.181-40.964 502.685-41.4984 503.188-42.0328 503.524-42.2693 503.692-42.2078 503.693-41.9383 503.357-41.2289 502.685-40.0797 502.012-38.9305 501.676-38.2779 501.677-38.1218L515.06-57.6438C513.549-55.6812 512.308-54.1017 511.337-52.9052 510.366-51.7087 509.864-51.0939 509.831-51.0608 509.794-51.3451 511.086-53.2451 513.705-56.7607 516.325-60.2763 519.467-64.3824 523.133-69.0792 526.799-73.776 530.183-78.0384 533.285-81.8665 536.387-85.6945 538.402-88.0631 539.331-88.9723 542.769-92.1209 546.221-93.4257 549.688-92.8868 553.154-92.3478 555.755-89.4545 557.491-84.2068 558.567-80.4527 558.332-77.0432 556.785-73.9783 555.238-70.9134 553.186-68.0249 550.63-65.313 548.075-62.6011 545.821-59.8976 543.871-57.2025 542.4-54.9001 541.029-52.4701 539.756-49.9124 538.484-47.3548 537.283-44.868 536.153-42.4522 535.258-40.8684 534.21-38.7032 533.007-35.9564 531.804-33.2096 531.046-30.5338 530.733-27.9289 531.034-29.6828 531.616-31.451 532.479-33.2333 533.343-35.0156 534.038-36.5001 534.564-37.6867 535.462-40.06 536.56-42.2347 537.855-44.2109 539.151-46.187 540.702-48.0214 542.509-49.7139 541.7-48.2436 540.877-46.8158 540.04-45.4306 539.203-44.0454 538.437-42.6744 537.742-41.3176L538.877-42.6791C538.995-42.3671 538.702-41.0623 537.997-38.7646 537.293-36.467 536.829-35.0487 536.607-34.5098 536.139-33.1435 535.713-31.7346 535.33-30.2832 534.947-28.8318 534.692-27.3663 534.564-25.8865 534.465-25.6265 534.436-24.9552 534.479-23.8725 534.521-22.7899 534.55-22.1753 534.564-22.0287L534.791-21.8018C534.848-21.9153 535.131-22.0287 535.642-22.1422 536.153-22.2557 536.55-22.3691 536.834-22.4826 538.551-23.1114 540.225-24.0664 541.856-25.3476 543.488-26.6288 544.992-27.8674 546.368-29.0635 549.087-31.2335 551.764-33.4744 554.398-35.7862 557.032-38.098 559.652-40.3957 562.258-42.6791 564.249-44.4898 566.339-46.3147 568.529-48.1538 570.718-49.9928 572.638-51.8744 574.289-53.7986 575.05-55.0419 576.024-56.0158 577.211-56.7203 578.398-57.4247 579.316-56.5264 579.964-54.0255 580.096-51.1704 578.81-48.1439 576.105-44.9462 573.4-41.7485 571.205-39.1717 569.522-37.2156 567.053-34.0156 564.613-30.7866 562.201-27.5287 559.789-24.2708 557.235-21.1526 554.54-18.1742 552.431-15.7623 549.839-13.3788 546.765-11.0237 543.691-8.66856 540.532-7.87406 537.288-8.64019 536.281-9.02325 534.495-9.95963 531.93-11.4493 529.365-12.939 527.976-14.0456 527.763-14.7692L528.442-14.3152 527.084-15.6772C527.527-14.9016 527.433-14.7503 526.801-15.2232 526.169-15.6961 525.735-15.9988 525.5-16.1312 524.934-16.7223 524.425-17.4128 523.972-18.2026 523.52-18.9923 523.123-19.7395 522.784-20.4442 522.232-21.6926 521.865-22.9403 521.681-24.1871 521.497-25.434 521.412-26.6804 521.426-27.9265 521.44-29.1726 521.525-30.4187 521.681-31.6648 521.836-32.9109 521.978-34.157 522.105-35.4031 522.298-37.9874 522.534-40.4734 522.812-42.8611 523.09-45.2488 523.609-47.6793 524.368-50.1528 524.565-50.6839 525.102-52.0431 525.978-54.2304 526.853-56.4177 527.792-58.5168 528.794-60.5276 529.796-62.5383 530.584-63.5444 531.159-63.5458 531.324-63.4843 531.277-63.21 531.017-62.7229 530.757-62.2358 530.653-61.9048 530.705-61.7298L533.883-68.0858C533.665-67.8541 533.476-67.6365 533.315-67.4332 533.154-67.2298 532.965-67.069 532.748-66.9508 532.748-67.2535 533.202-68.2371 534.11-69.9018 535.018-71.5665 535.699-72.7771 536.153-73.5338 533.911-70.9186 531.813-68.2608 529.859-65.5604 527.905-62.8601 525.924-60.1455 523.916-57.4168 522.396-55.5393 520.846-53.8463 519.265-52.3377 517.685-50.8291 516.359-49.1928 515.288-47.4288 512.835-43.3761 510.297-39.3968 507.673-35.4911 505.05-31.5853 502.74-27.5533 500.743-23.3952L499.837-25.2077C497.675-22.9819 495.372-22.6696 492.927-24.2708 490.482-25.8721 488.632-27.7703 487.376-29.9655 486.416-31.7307 485.953-33.4113 485.986-35.0071 486.019-36.603 486.18-38.3979 486.468-40.3918 486.653-42.2031 486.795-44.0285 486.894-45.8682L487.07-46.9296 484.324-46.5521C481.619-46.185 479.822-45.9571 478.933-45.8682 478.588-45.8256 477.975-45.6838 477.093-45.4426 476.211-45.2014 475.768-45.1162 475.763-45.1872 474.731-44.8041 474.081-44.492 473.812-44.2508 473.544-44.0096 473.063-43.4137 472.37-42.4632 471.47-41.0917 470.611-39.6919 469.794-38.2637 468.977-36.8355 468.173-35.4356 467.383-34.0642 466.995-33.6144 466.055-32.3701 464.565-30.3313 463.075-28.2925 461.547-26.342 459.981-24.4797 458.415-22.6175 457.324-21.7263 456.708-21.8062 456.789-21.896 457.082-22.2838 457.589-22.9696 458.095-23.6553 458.331-24.0998 458.298-24.3032L451.712-16.5852C452.057-16.9257 452.332-17.1527 452.535-17.2662 452.739-17.3797 452.843-17.3797 452.847-17.2662 451.953-15.2799 450.165-13.2937 447.482-11.3074 444.799-9.32119 442.499-7.67544 440.583-6.37019 438.752-4.97508 436.736-3.73604 434.536-2.65306 432.336-1.57008 430.036-0.841794 427.637-0.468188 425.343-0.245918 423.005-0.349958 420.625-0.780313 418.246-1.21067 415.966-1.93896 413.786-2.96519 406.896-6.58773 401.975-12.1114 399.023-19.5362L397.47-24.8716 397.392-24.7572C394.16-19.6639 390.856-14.4712 387.482-9.17931 384.107-3.88738 380.293 0.908001 376.038 5.20681 374.509 6.69177 373.023 7.80785 371.58 8.55506 370.136 9.30227 368.366 9.62385 366.27 9.51981 363.701 9.3874 361.471 8.80098 359.582 7.76056 357.693 6.72015 355.918 5.33923 354.255 3.61781 353.66 3.10706 352.47 1.97206 350.685 0.212812 348.9-1.54644 348.049-2.90844 348.134-3.87319L349.495-1.83019C348.852-2.92735 348.323-4.13802 347.908-5.46219L347.908-4.55419C347.506-4.54946 347.006-5.75067 346.406-8.15781 345.806-10.565 345.476-12.1634 345.414-12.9532 345.32-14.6557 345.395-16.3582 345.641-18.0607 345.886-19.7632 346.189-21.4657 346.548-23.1682 348.172-28.6162 349.684-34.0642 351.081-39.5122 351.908-42.345 352.975-45.1352 354.283-47.8828 355.592-50.6305 356.942-53.3639 358.336-56.0832 358.713-56.8871 359.601-58.6275 360.999-61.3042 362.397-63.9809 363.398-65.4942 364.003-65.8442 363.96-65.655 363.819-65.2388 363.578-64.5957 363.337-63.9525 363.252-63.5364 363.323-63.3472L366.724-71.0652 366.043-70.3842 372.631-86.2742C368.468-82.7935 364.648-78.9156 361.171-74.6404 357.694-70.3653 354.33-66.1469 351.081-61.9852 349.518-60.0037 347.941-57.9512 346.348-55.8278 344.756-53.7044 343.007-51.8222 341.101-50.1812 340.453-49.6941 339.933-49.4198 339.541-49.3583 339.148-49.2968 338.685-48.9658 338.15-48.3652 337.701-47.7835 337.294-47.1309 336.93-46.4073 336.566-45.6838 336.216-44.9744 335.88-44.2792 333.218-39.9993 330.371-35.8471 327.339-31.8226 324.308-27.798 321.404-23.7026 318.628-19.5362L314.542-12.2722C314.344-11.7236 314.173-11.2318 314.031-10.7967 313.89-10.3616 313.606-9.86977 313.18-9.32119 311.601-7.77948 309.766-7.17415 307.675-7.50519 305.585-7.83623 303.864-8.8199 302.511-10.4562 301.523-11.6196 300.889-12.9248 300.61-14.3719 300.331-15.8191 300.208-17.2378 300.241-18.6282 300.052-21.1417 300.005-23.673 300.099-26.222L300.639-32.0844 291.843-18.7788C288.58-14.2568 285.289-9.73473 281.969-5.21268 278.351-0.321624 274.691 4.54089 270.988 9.37485 267.285 14.2088 263.454 18.9571 259.496 23.6198 257.675 25.9989 255.585 28.4914 253.225 31.0972 250.865 33.7029 248.264 35.7422 245.422 37.215 243.207 38.1461 240.859 38.2125 238.38 37.4142 235.901 36.616 233.718 35.4922 231.83 34.0428 229.797 32.6644 228.189 31.0028 227.006 29.0579 225.824 27.113 225.011 24.9982 224.566 22.7134 224.372 21.7915 224.136 20.1172 223.857 17.6907 223.578 15.2642 223.739 13.533 224.339 12.4971L224.339 15.9028 224.793 11.3619C224.576 11.6835 224.443 11.4375 224.396 10.6239 224.349 9.81036 224.33 9.22382 224.339 8.86433 224.349 7.94667 224.443 7.00063 224.623 6.02622 224.803 5.0518 225.011 4.10577 225.247 3.18811 225.484 1.38118 225.805-0.397365 226.212-2.14753 226.619-3.89769 227.054-5.67624 227.517-7.48317 228.326-10.9977 229.149-14.5264 229.986-18.0693 230.823-21.6122 231.589-25.1977 232.284-28.8257 232.885-32.449 233.727-35.9872 234.81-39.4402L235.921-42.821 219.995-30.1946C212.92-24.5216 205.959-18.6217 199.111-12.4948 197.664-11.2515 196.018-9.93722 194.174-8.55206 192.329-7.1669 190.797-5.68246 189.577-4.09875 188.48-2.37316 187.609-0.150823 186.966 2.56824 186.323 5.2873 185.68 7.68016 185.037 9.74681 180.984 23.1351 176.605 36.5375 171.899 49.9542 167.194 63.3708 161.282 76.149 154.165 88.2888 152.032 92.0438 149.715 95.5434 147.213 98.7876 144.711 102.032 141.202 104.283 136.686 105.541 131.451 106.803 126.33 106.378 121.324 104.264 116.317 102.15 112.216 98.9436 109.02 94.6448 106.128 90.6723 104.951 86.5863 105.489 82.3868 106.027 78.1873 107.472 74.1013 109.826 70.1288 112.179 66.1563 114.633 62.5243 117.187 59.2328 120.681 54.5509 124.233 49.8974 127.841 45.2723 131.45 40.6472 135.23 36.2207 139.183 31.9928 142.03 29.0465 144.962 26.1428 147.979 23.2817 150.996 20.4205 154.042 17.5736 157.116 14.7408 159.433 12.5796 162.063 10.2623 165.004 7.78894 167.946 5.31558 170.235 2.71454 171.871-0.0141848 173.616-3.50782 175.006-7.35601 176.042-11.5588 177.078-15.7615 178.184-19.7799 179.362-23.6139 181.216-29.9677 183.183-36.3214 185.264-42.6752 183.471-41.2239 181.778-39.418 180.185-37.2575 178.591-35.097 176.955-33.1209 175.276-31.3292L160.294-16.3524C157.91-13.7996 155.3-11.3602 152.462-9.03427 149.625-6.70833 146.56-4.83624 143.269-3.41799 142.28-3.04983 140.512-2.31111 137.963-1.20185 135.414-0.0925886 133.929 0.539756 133.508 0.69519L133.962 0.239576 132.6 0.69519C133.201 0.769672 132.908 1.06761 131.722 1.589 130.537 2.11039 129.62 2.40833 128.973 2.48281 127.708 2.70472 126.442 2.71491 125.177 2.5134 123.911 2.3119 122.759 1.92928 121.72 1.36555 119.544 0.137851 117.778-1.66181 116.422-4.03344 115.067-6.40507 114.264-8.77752 114.014-11.1508 113.937-11.8539 113.99-13.4851 114.174-16.0444 114.357-18.6037 114.679-21.0618 115.139-23.4186 115.599-25.7754 116.207-27.0017 116.961-27.0973 117.14-27.0451 117.178-26.8078 117.074-26.3854 116.97-25.963 117.008-25.6687 117.187-25.5026 117.296-26.3094 117.419-27.1447 117.556-28.0085 117.693-28.8723 117.872-29.7076 118.094-30.5144L117.641-30.0588C117.364-30.4019 117.792-32.4493 118.925-36.2011L122.473-47.2792 119.615-45.1389C117.979-43.6425 116.144-42.1462 114.11-40.6498 112.077-39.1534 110.128-37.7707 108.265-36.5016 106.767-35.5971 105.286-35.0194 103.824-34.7685 102.361-34.5175 101.05-33.8829 99.8924-32.8648 99.7836-32.8743 99.7174-32.9122 99.6937-32.9785 99.6701-33.0448 99.6606-33.0827 99.6653-33.0921 99.3436-32.737 98.9651-32.3108 98.5298-31.8136 98.0945-31.3164 97.4889-30.8334 96.713-30.3646 95.7336-29.6827 94.9103-29.0008 94.2432-28.3189 93.5761-27.637 92.8096-26.9551 91.9438-26.2732 90.373-25.2456 88.9725-24.6868 87.7424-24.5969 86.5122-24.5069 85.3389-24.2322 84.2223-23.7729L84.4494-23.7729C83.8059-23.4039 82.519-22.1468 80.5886-20.0014 78.6582-17.8562 76.7657-15.673 74.911-13.4519 73.0563-11.2308 71.9208-9.82216 71.5044-9.22585 69.6734-7.19438 67.8282-5.23393 65.9688-3.34452 64.1094-1.4551 62.3209 0.448517 60.6034 2.36634 59.0374 4.20366 56.9461 6.38194 54.3297 8.90115 51.7133 11.4204 49.111 12.8031 46.523 13.0493 43.7375 12.7226 41.2645 10.8758 39.104 7.50895 36.9435 4.1421 35.4897 1.21565 34.7426-1.27042 33.8058-4.10691 33.8625-5.59382 34.913-5.73114 35.9634-5.86847 37.4965-6.04841 39.5122-6.27098 42.2328-7.12808 44.7602-8.82334 47.0944-11.3568 49.4287-13.8902 51.5092-16.2105 53.3361-18.3178 55.7018-20.9459 58.0107-23.6451 60.2628-26.4153 62.5149-29.1854 64.8238-31.9414 67.1895-34.6832 68.1073-35.5829 68.9968-36.5111 69.8579-37.4676 70.719-38.4242 71.495-39.4659 72.1857-40.593 72.323-41.0807 72.6163-41.9236 73.0658-43.1216 73.5153-44.3197 73.9789-44.9921 74.4568-45.1389 74.4568-45.1152 74.4-44.9353 74.2865-44.5991 74.1729-44.2629 74.0026-43.9125 73.7755-43.5478L75.1381-45.5935C74.8826-45.5509 74.9962-46.1475 75.4787-47.3835 75.9613-48.6194 76.302-49.3865 76.5007-49.6849 77.0732-50.9255 77.6883-52.1378 78.3459-53.3216 79.0036-54.5055 79.6754-55.7177 80.3615-56.9584 81.6579-59.2361 82.9259-61.6133 84.1655-64.0899 85.4051-66.5665 86.3324-69.1141 86.9475-71.7328 87.4538-73.3473 87.7471-75.6292 87.8275-78.5786 87.908-81.5279 86.7819-82.9581 84.4494-82.8692 83.7288-82.6928 82.3942-81.9354 80.4456-80.597 78.497-79.2587 76.6241-77.9455 74.8269-76.6575 73.0297-75.3695 71.9979-74.7129 71.7315-74.6876 71.6937-74.8486 71.8829-75.1517 72.2993-75.5968 72.7157-76.042 72.9049-76.345 72.8671-76.506 71.9492-75.5968 71.0029-74.6308 70.0283-73.608 69.0536-72.5851 68.1073-71.5055 67.1895-70.369 67.4166-70.5915 67.6437-70.7715 67.8708-70.9088 68.0979-71.0461 68.325-71.1693 68.5521-71.2782 67.7432-70.4574 65.7273-67.8561 62.5044-63.4743 59.2815-59.0925 56.0712-54.6728 52.8735-50.2152 49.6758-45.7577 47.7104-43.0048 46.9772-41.9567 45.1848-39.447 43.4949-36.852 41.9076-34.1718 40.3203-31.4916 38.6891-28.7829 37.0139-26.0459 36.1243-24.649 35.2347-23.181 34.3452-21.642 33.4556-20.103 32.4525-18.6919 31.3358-17.4086 30.7491-16.9729 30.1624-16.5941 29.5756-16.2721 28.9889-15.9501 28.5157-15.5712 28.1561-15.1356 26.9212-13.3693 25.7572-11.3331 24.6641-9.02696 23.5711-6.72084 22.4639-4.51415 21.3425-2.40691 19.8804 0.112305 18.4325 2.68835 16.9988 5.32121 15.5651 7.95408 14.0604 10.5301 12.4848 13.0493 11.1599 15.5496 10.0621 18.1067 9.1915 20.7206 8.32087 23.3346 7.45024 26.0053 6.57962 28.7329 5.88405 30.6507 5.17429 32.4975 4.45035 34.2733 3.7264 36.049 3.07342 37.839 2.49143 39.6432 2.60972 39.2975 2.7706 38.966 2.97406 38.6488 3.17752 38.3315 3.39518 38.0568 3.62704 37.8248 3.88255 38.0568 3.76899 39.4112 3.28636 41.8878 2.80372 44.3644 2.46303 45.8892 2.26431 46.4621L0.220214 56.9178C-0.560519 60.6777-1.27027 64.466-1.90905 68.2827-2.54783 72.0994-3.2008 75.8877-3.86796 79.6476-3.92948 81.1251-4.09036 82.8866-4.3506 84.9323-4.61085 86.978-5.28274 88.6259-6.3663 89.876-8.98245 91.9103-11.582 91.815-14.165 89.5902-16.748 87.3654-18.6075 85.112-19.7435 82.8298-22.3784 77.1095-23.1151 70.4799-21.9535 62.9412-20.792 55.4025-19.6028 48.5457-18.3859 42.3708-17.8391 38.4878-17.1225 34.6048-16.2359 30.7218-15.3493 26.8388-14.1792 23.0694-12.7257 19.4137-12.1532 18.3009-11.5948 17.2307-11.0507 16.2031-10.5065 15.1755-10.005 14.0485-9.54599 12.822-9.54126 12.519-9.43717 11.6477-9.23371 10.2081-9.03024 8.76857-8.75581 7.89726-8.41039 7.5942-8.40093 7.70784-8.36307 7.82149-8.29683 7.93514-8.23059 8.04879-8.19273 8.16244-8.18327 8.27609-8.17854 8.05353-8.13122 7.81675-8.04132 7.56578-7.95142 7.31481-7.84732 7.02121-7.72903 6.685-8.22585 7.44266-8.3678 7.12066-8.15488 5.71899-7.94196 4.31732-7.80001 3.42707-7.72903 3.04824-7.37888 1.80283-7.00035 0.600049-6.59342-0.560117-6.1865-1.72028-5.80796-2.86624-5.45782-3.998-4.66762-6.14786-3.97679-8.26931-3.38534-10.3623-2.79388-12.4554-2.27339-14.5768-1.82387-16.7267-1.61918-17.5601-0.9939-19.631 0.0519788-22.9395 1.09786-26.2479 2.24468-29.4301 3.49244-32.486 4.74021-35.5419 5.76927-37.1077 6.57962-37.1835 6.75468-37.1219 6.74522-36.8473 6.55122-36.3595 6.35722-35.8718 6.29098-35.5403 6.35249-35.3651 6.802-36.3879 7.20893-37.4108 7.57326-38.4336 7.93761-39.4565 8.28775-40.4793 8.6237-41.5021 8.51487-41.2701 8.39185-41.0523 8.25463-40.8487 8.11741-40.645 7.93761-40.4841 7.71521-40.3657 7.81335-40.6421 8.5508-42.7158 9.92755-46.5869 11.3043-50.458 12.7315-54.468 14.2092-58.6168 15.6869-62.7657 16.6262-65.3951 17.0272-66.5049 17.912-68.7731 18.6975-71.0556 19.3836-73.3523 20.0697-75.6489 20.7983-77.9882 21.5696-80.3701 21.7258-80.8673 21.9813-81.5202 22.3361-82.3289 22.691-83.1376 22.8898-83.8466 22.9323-84.4558 22.885-84.8902 22.6958-85.268 22.3645-85.5891 22.0333-85.9102 21.8441-86.2879 21.7967-86.7224 21.5743-89.8436 22.3598-92.4974 24.1531-94.6837 25.9464-96.87 28.7192-97.5405 32.4714-96.6953 34.4022-96.1995 36.0484-95.2645 37.4099-93.8904 38.7715-92.5163 39.847-90.958 40.6366-89.2156 41.574-87.3741 41.9482-85.8439 41.7593-84.625 41.5704-83.4062 41.2706-81.9878 40.86-80.3701L41.5304-81.5066C41.8125-81.3873 41.8526-80.5651 41.6507-79.04 41.4488-77.5148 41.1215-76.0023 40.6689-74.5024 40.2163-73.0025 39.755-72.2309 39.2851-72.1873 39.2141-72.3152 39.2992-72.9119 39.5405-73.9773 39.7817-75.0428 39.9236-75.8099 39.9662-76.2787 39.0531-73.1013 38.0974-69.9665 37.099-66.8743L34.2802-58.3058 34.0613-57.8676 32.6986-54.0035C32.5897-53.6531 32.4667-53.2743 32.3295-52.867 32.1923-52.4598 32.0125-52.081 31.7901-51.7306 29.9058-46.2123 27.8701-40.1005 25.683-33.3952 23.4959-26.6899 21.5612-20.6791 19.8788-15.3629 18.1964-10.0467 17.1702-6.71295 16.8001-5.36178 17.7133-7.1849 18.6691-8.99382 19.6675-10.7885 20.6659-12.5832 21.6784-14.3353 22.7052-16.0448 21.6595-14.5342 20.7983-13.2935 20.1217-12.3228 19.4451-11.352 19.0949-10.8501 19.0713-10.8169 19.1835-10.9998 20.3767-12.9354 22.6509-16.6237 24.9251-20.3119 27.6069-24.6555 30.6964-29.6542 33.7859-34.653 36.6097-39.2096 39.1678-43.3241 41.7258-47.4385 43.3449-50.0134 44.0249-51.0487 48.0891-57.2144 52.2243-63.4077 56.4304-69.6283 60.6366-75.849 65.0556-81.9248 69.6876-87.8556 71.7836-90.6417 74.4615-93.6261 77.7214-96.8089 80.9813-99.9917 84.5109-101.616 88.3101-101.682 94.314-100.86 98.3731-97.9133 100.487-92.8405 102.602-87.7677 103.539-82.7775 103.299-77.8698 103.406-78.5043 103.528-79.1673 103.663-79.8587 103.798-80.55 103.975-80.872 104.195-80.8247 105.245-80.039 105.58-78.1252 105.2-75.0833 104.819-72.0414 104.2-68.9491 103.342-65.8062 102.484-62.6633 101.864-60.5475 101.482-59.4587 100.209-55.6988 98.667-51.9673 96.8549-48.2643 95.0428-44.5612 93.103-40.9434 91.0354-37.4108 93.2924-38.6704 95.4779-40.0152 97.5918-41.4453 99.7057-42.8754 101.832-44.3339 103.971-45.8208 105.938-46.9952 108.052-47.8286 110.31-48.3211 112.569-48.8136 114.687-49.4197 116.664-50.1395 116.536-50.1442 116.394-50.1916 116.238-50.2815 116.082-50.3715 115.997-50.4757 115.983-50.5941 115.897-51.2325 116.775-51.9761 118.614-52.825 120.454-53.6738 122.407-54.4343 124.474-55.1063L125.199-55.3329 127.698-62.1511C128.544-64.5383 129.573-66.8259 130.787-69.0138 131.254-69.6593 131.736-70.1907 132.232-70.6078 132.728-71.025 133.153-71.5551 133.508-72.1983 133.74-72.4624 134.014-72.8964 134.331-73.5 134.648-74.1037 134.979-74.6508 135.324-75.1413 136.672-77.8157 138.686-79.7688 141.368-81.0006 144.049-82.2324 146.801-82.3167 149.625-81.2537 150.977-80.749 152.245-79.8341 153.427-78.5088 154.609-77.1835 155.082-75.7592 154.846-74.2358 154.595-73.5849 154.245-73.0756 153.796-72.7077 153.347-72.3398 152.94-71.9436 152.576-71.5192 152.689-71.5286 152.803-71.5664 152.916-71.6324 153.03-71.6984 153.143-71.7361 153.257-71.7456 153.455-71.3191 153.058-70.0097 152.065-67.8174 151.072-65.625 150.334-64.4292 149.852-64.2298 149.658-64.2868 149.648-64.6285 149.823-65.255 149.998-65.8814 150.159-66.4509 150.306-66.9635 147.79-61.7167 145.387-56.3777 143.099-50.9465 140.81-45.5152 138.748-40.0351 136.913-34.5061 137.518-36.0651 138.527-38.5696 139.939-42.0197 141.352-45.4697 142.714-48.6802 144.025-51.6512 145.337-54.6221 146.144-56.1686 146.447-56.2904 146.47-56.0162 145.488-53.6856 143.501-49.2984 141.514-44.9113 139.405-39.7725 137.173-33.882 134.941-27.9916 133.469-22.6542 132.757-17.87 132.046-13.0857 132.977-10.1594 135.551-9.091 137.651-8.69862 140.091-9.59684 142.872-11.7857 145.652-13.9745 147.752-15.7237 149.171-17.0332 152.325-19.4348 155.607-21.9498 159.017-24.5783 162.427-27.2068 165.425-29.8353 168.012-32.4638 167.79-32.3362 167.553-32.1943 167.302-32.0383 167.052-31.8823 166.759-31.7972 166.423-31.783 166.619-31.9315 167.614-33.0717 169.407-35.2036 171.201-37.3356 173.07-39.5684 175.015-41.902 176.96-44.2356 178.258-45.7793 178.908-46.5329 180.993-48.6886 183.292-51.0145 185.803-53.5107 188.314-56.0068 190.102-58.6731 191.166-61.5096 191.52-63.1075 192.06-64.4501 192.783-65.5374 193.507-66.6247 195.011-67.4001 197.295-67.8634 200.222-68.3219 203.22-67.9154 206.29-66.6437 209.359-65.372 211.279-63.2068 212.05-60.1481 212.248-58.8055 212.135-57.5763 211.709-56.4606 211.284-55.3449 210.716-54.2292 210.007-53.1135 206.569-47.5304 203.343-41.7344 200.331-35.7258 197.318-29.7171 194.717-23.6375 192.528-17.4871 197.735-21.9214 202.984-26.3275 208.276-30.7052 213.568-35.0828 218.988-39.3754 224.535-43.5829 226.474-45.1524 228.441-46.6652 230.437-48.1213 232.433-49.5774 234.4-51.0902 236.339-52.6597 237.164-53.4595 238.313-54.4569 239.786-55.6517L240.482-56.1628 242.302-61.0666C243.201-63.3245 243.863-64.5354 244.287-64.6994 244.367-64.5906 244.32-64.127 244.145-63.3087 243.97-62.4904 243.866-61.9701 243.833-61.7478 244.301-63.4506 244.84-65.1535 245.45-66.8563 246.06-68.5592 246.656-70.2621 247.238-71.9649 246.992-71.3642 246.746-70.8628 246.5-70.4607 246.254-70.0587 246.122-69.9546 246.103-70.1486 246.207-71.6007 246.737-73.2941 247.692-75.2288 248.647-77.1634 249.404-78.8 249.962-80.1387L252.686-88.0854C253.92-91.7276 255.197-95.3415 256.516-98.927 257.836-102.512 259.283-106.013 260.858-109.428 257.68-109.253 254.559-109.149 251.495-109.116 248.431-109.083 245.425-108.808 242.477-108.293 238.08-107.545 233.395-107.28 228.422-107.498 223.45-107.716 218.759-108.132 214.351-108.747 213.552-108.813 212.37-109.021 210.804-109.37 209.239-109.719 208.681-110.493 209.13-111.69 209.537-112.058 210.539-112.454 212.138-112.878 213.736-113.302 214.852-113.585 215.486-113.726 217.647-114.48 219.851-114.951 222.098-115.14 224.344-115.329 226.604-115.46 228.879-115.536 233.295-115.927 237.679-116.163 242.031-116.243 246.383-116.323 250.767-116.615 255.183-117.119 256.389-117.181 257.779-117.171 259.354-117.091 260.929-117.011 262.262-117.171 263.355-117.572 264.315-117.922 264.949-118.47 265.256-119.218 265.563-119.965 265.913-120.854 266.306-121.885 267.933-126.009 269.673-130.019 271.527-133.916 272.525-136.091 273.537-138.267 274.563-140.445 275.589-142.623 276.771-144.692 278.11-146.652 279.027-147.821 279.916-148.777 280.777-149.52 281.638-150.263 282.413-151.275 283.104-152.558 284.452-155.637 285.956-158.66 287.615-161.627 289.275-164.593 291.176-167.389 293.319-170.015 295.679-172.906 298.62-174.721 302.143-175.458 305.667-176.195 309.232-176.194 312.841-175.457 314.704-175.14 316.426-174.413 318.005-173.274 319.585-172.136 320.058-170.445 319.424-168.202 319.031-167.314 318.398-166.539 317.523-165.878 316.648-165.216 315.844-164.555 315.111-163.894 315.196-163.898 315.536-164.172 316.132-164.716 316.728-165.259 317.069-165.363 317.154-165.027 316.98-164.364 316.193-162.995 314.791-160.921 313.39-158.847 311.964-156.874 310.512-155.001 309.06-153.128 308.172-152.163 307.847-152.104 307.875-152.331 308.386-153.294 309.379-154.995 310.372-156.695 310.996-157.772 311.252-158.226 306.958-151.847 302.947-145.253 299.221-138.443L297.921-135.928 298.437-136.782C298.82-137.34 299.157-137.671 299.448-137.775L294-127.333C295.149-130.038 296.199-132.402 297.149-134.427L297.326-134.778 288.552-117.802C289.195-117.839 289.952-118.67 290.822-120.297 290.103-118.897 289.725-118.065 289.687-117.802 294.118-118.01 298.592-118.16 303.108-118.255 307.625-118.349 312.155-118.5 316.7-118.707 317.707-118.877 318.814-119.161 320.02-119.559 320.924-119.858 321.549-119.645 321.895-118.922L321.956-118.706 324.672-125.84C326.526-130.261 328.522-134.609 330.659-138.881 334.934-147.427 339.323-155.987 343.825-164.561 343.849-164.854 344.085-165.743 344.534-167.228 344.984-168.713 345.504-169.716 346.094-170.236 345.929-169.957 345.636-169.21 345.215-167.994 344.795-166.779 344.558-166.088 344.506-165.923L347.228-171.144C347.19-171.106 347.039-171.182 346.774-171.371 346.935-173.513 347.861-175.868 349.551-178.436 351.242-181.004 352.734-183.189 354.028-184.991 357.202-190.174 360.603-195.244 364.23-200.2 367.351-204.711 370.587-209.195 373.937-213.65 377.288-218.104 381.093-222.02 385.352-225.397 387.633-227.17 390.113-228.674 392.792-229.908 395.471-231.143 398.291-231.682 401.254-231.526Z" stroke="#2C4255" stroke-width="40" stroke-linejoin="round" stroke-miterlimit="10" fill="#F3CA12" fill-rule="evenodd" transform="matrix(1 0 0 1.00084 523.021 381.304)"/><text fill="#000000" fill-opacity="0" font-family="Arial,Arial_MSFontService,sans-serif" font-size="337.801" x="-22.4866" y="64.0239">python</text><path d="M165.969 51.7418C165.16 53.1133 164.394 54.5131 163.67 55.9413 162.947 57.3695 162.351 58.7694 161.883 60.1408 161.32 61.29 160.8 62.5101 160.322 63.8012 159.845 65.0922 159.381 66.3691 158.932 67.6318L160.975 63.9998C162.19 61.9568 163.164 59.9138 163.897 57.8708 164.63 55.8278 165.321 53.7848 165.969 51.7418ZM-13.4071 40.7797C-13.5159 40.8839-13.5821 40.9596-13.6058 41.007-13.6294 41.0543-13.6389 41.1301-13.6342 41.2343-13.5254 41.1301-13.4591 41.0543-13.4354 41.007-13.4118 40.9596-13.4023 40.8839-13.4071 40.7797ZM169.601 31.5388C169.762 32.8441 169.554 34.2628 168.977 35.7951 168.4 37.3273 167.851 38.6326 167.331 39.7108 166.886 40.4155 166.527 41.2762 166.253 42.2929 165.978 43.3097 165.732 44.3407 165.515 45.3858L169.601 35.3978C169.814 34.8114 169.899 34.1682 169.856 33.4683 169.814 32.7684 169.729 32.1252 169.601 31.5388ZM166.423 16.3298C161.67 20.7469 157.158 25.3058 152.888 30.0066 148.618 34.7074 144.503 39.6068 140.545 44.7048 136.54 49.5711 132.636 54.707 128.833 60.1124 125.031 65.5179 122.207 71.278 120.361 77.3928 119.868 79.2312 119.72 81.6582 119.916 84.6736 120.111 87.6891 120.887 90.2505 122.241 92.358 123.595 94.4655 125.764 95.0764 128.747 94.1908 131.118 93.2402 133.178 91.5094 134.927 88.9982 136.676 86.487 138.171 84.1319 139.41 81.9328 142.399 76.901 145.047 71.7556 147.355 66.4968 147.364 66.4826 147.402 66.3975 147.468 66.2414 147.535 66.0854 147.572 65.9435 147.582 65.8158 147.577 65.8064 147.587 65.7685 147.61 65.7023 147.634 65.6361 147.7 65.5983 147.809 65.5888L147.809 65.3618 148.717 63.5458 148.717 63.3188C152.093 55.5866 155.215 47.7835 158.081 39.9094 160.946 32.0354 163.727 24.1755 166.423 16.3298ZM22.251-26.2732C21.8015-25.0088 21.3945-23.7303 21.0302-22.4375 20.6659-21.1448 20.3157-19.9231 19.9798-18.7724 20.4293-19.9089 20.8362-21.1022 21.2005-22.3523 21.5649-23.6024 21.915-24.9094 22.251-26.2732ZM23.6137-29.0008 23.3866-28.7735C23.396-28.7687 23.4339-28.7782 23.5001-28.8019 23.5664-28.8256 23.6042-28.8919 23.6137-29.0008ZM12.0305-33.5467C12.0778-32.3203 11.4722-30.2272 10.2135-27.2676 8.95492-24.308 8.12214-22.3855 7.71521-21.4999 5.84619-16.8451 3.9062-12.176 1.89524-7.4927-0.115736-2.80942-1.88539 1.91648-3.41373 6.685-5.05562 11.9176-6.7685 17.2496-8.55234 22.6811-10.3362 28.1126-11.8787 33.6151-13.1799 39.1886-12.1484 35.1967-10.975 31.2474-9.65956 27.3407-8.34415 23.434-6.94357 19.6552-5.45782 16.0042-3.63611 11.6761-1.88539 7.26272-0.205635 2.76412 1.47412-1.73449 3.0545-6.2615 4.53552-10.8169 5.21215-12.9763 5.90298-15.1356 6.608-17.2949 7.31302-19.4543 8.06063-21.6136 8.85082-23.7729 9.4754-25.1604 10.1568-26.6473 10.8949-28.2336 11.6331-29.82 12.0873-31.3637 12.2576-32.8648L12.2576-33.0921C12.2624-33.0969 12.2529-33.1442 12.2292-33.2342 12.2056-33.3242 12.1394-33.4283 12.0305-33.5467ZM92.398-37.4108C92.029-37.1977 91.6315-36.9988 91.2057-36.8141 90.7799-36.6295 90.496-36.3737 90.3541-36.047ZM46.6153-53.8295C46.6058-53.8437 46.575-53.826 46.523-53.7762 46.5277-53.6721 46.5183-53.5963 46.4946-53.5489 46.471-53.5016 46.4047-53.4258 46.2959-53.3216L46.2959-53.0943C46.4189-53.3358 46.5135-53.5347 46.5798-53.691 46.6129-53.7691 46.6247-53.8153 46.6153-53.8295ZM34.1837-58.0124 34.0613-57.6403 34.0613-57.8676ZM34.5155-58.7768C34.5108-58.5542 34.4635-58.3743 34.3736-58.237L34.1837-58.0124 34.2802-58.3058ZM432.861-62.1838C432.038-61.2282 430.902-59.5074 429.454-57.0213 428.006-54.5353 426.417-51.5695 424.685-48.124L426.048-50.1572C425.773-49.3832 424.649-46.8819 422.676-42.6533 420.703-38.4246 418.849-33.7241 417.114-28.5515 415.378-23.379 414.729-18.9899 415.166-15.3841 415.604-11.7784 418.095-10.2114 422.641-10.6832L422.868-10.6832C428.18-11.7944 433.05-14.2381 437.479-18.0144 441.908-21.7908 445.819-26.1346 449.214-31.0459 452.608-35.9573 455.409-40.671 457.617-45.1872 452.37-45.7791 447.307-47.3627 442.428-49.938 437.55-52.5132 434.361-56.5952 432.861-62.1838ZM36.1054-62.6408 35.424-60.8225C35.5376-61.2818 35.6511-61.6701 35.7647-61.9874 35.8782-62.3046 35.9918-62.5225 36.1054-62.6408ZM53.3361-63.55C52.546-62.5177 51.7984-61.457 51.0935-60.3679 50.3885-59.2787 49.6977-58.218 49.0211-57.1857ZM270.846-78.7548C269.839-76.4801 268.902-74.2195 268.037-71.9732 267.171-69.7268 266.292-67.523 265.398-65.3618 267.252-69.41 268.992-73.5716 270.619-77.8468 270.581-78.036 270.657-78.3386 270.846-78.7548ZM452.166-88.527C452.157-88.418 452.119-88.3517 452.053-88.328 451.986-88.3043 451.948-88.2948 451.939-88.2996ZM335.88-97.1454C335.871-97.0274 335.833-96.9236 335.767-96.834 335.7-96.7443 335.663-96.6972 335.653-96.6924 335.663-96.7962 335.7-96.8717 335.767-96.9189 335.833-96.9661 335.871-97.0416 335.88-97.1454ZM464.542-98.6937C464.05-98.6847 463.542-98.5826 463.017-98.3872 460.919-97.6058 458.883-96.1814 456.91-94.114 454.938-92.0465 453.356-90.1842 452.166-88.527 452.057-88.5175 451.991-88.4796 451.967-88.4133 451.944-88.3469 451.934-88.3091 451.939-88.2996L451.712-87.8448 451.712-88.0722C451.589-87.8448 451.494-87.6743 451.428-87.5606 451.362-87.4469 451.381-87.39 451.485-87.39 450.912-86.6226 450.297-85.8268 449.639-85.0025 448.982-84.1782 448.31-83.155 447.624-81.9328 447.832-82.2265 448.324-82.9466 449.1-84.093 449.876-85.2394 450.368-85.732 450.576-85.571 450.737-84.6428 450.188-82.9768 448.93-80.573 447.671-78.1692 446.782-76.5038 446.261-75.5768 445.57-73.7655 444.965-71.9401 444.444-70.1004 443.924-68.2608 443.545-66.3786 443.309-64.4538 443.006-62.4818 442.93-60.5239 443.081-58.5802 443.233-56.6365 444.066-54.9624 445.58-53.5578 446.521-52.7822 447.647-52.2337 448.958-51.9121 450.269-51.5905 451.565-51.3824 452.847-51.2878 453.595-51.1508 454.541-51.0281 455.686-50.9198 456.832-50.8114 457.778-50.8584 458.525-51.0608 459.562-51.2028 460.158-51.3164 460.314-51.4017 460.47-51.487 460.782-52.0544 461.251-53.1038 462.907-56.0406 464.194-59.3605 465.112-63.0634 466.03-66.7664 466.863-70.2565 467.61-73.5338 468.357-76.594 469.076-80.3517 469.765-84.807 470.454-89.2624 470.039-93.0794 468.519-96.258 467.342-97.9087 466.016-98.7206 464.542-98.6937ZM320.043-113.682 317.966-112.301C317.252-111.929 316.527-111.653 315.792-111.471 314.293-111.121 312.751-111.139 311.167-111.526 309.582-111.913 308.097-112.046 306.712-111.923 305.998-111.688 305.553-111.423 305.378-111.13 305.203-110.837 304.815-110.572 304.215-110.336 303.174-110.019 302.077-109.858 300.923-109.853 299.769-109.848 298.672-109.858 297.632-109.882 296.005-109.981 293.981-110.18 291.56-110.478 289.138-110.776 287.228-110.577 285.828-109.882 285.374-109.655 284.92-109.2 284.466-108.519L285.147-109.882C284.433-109.603 283.591-108.344 282.621-106.107 281.652-103.87 280.753-101.646 279.926-99.4374L282.423-104.432 279.245-95.8046C278.115-93.4111 277.027-90.9893 275.982-88.539 274.937-86.0888 273.906-83.6669 272.889-81.2735 270.855-76.5197 268.907-71.78 267.044-67.0546 265.18-62.3291 263.345-57.5327 261.539-52.6654 258.432-43.7868 255.452-34.7522 252.601-25.5615 249.749-16.3707 247.28-7.16581 245.195 2.05331 244.898 3.24461 244.46 5.1507 243.881 7.77156 243.302 10.3924 242.999 12.9376 242.971 15.4071 242.944 17.8766 243.609 19.48 244.968 20.2172 245.497 20.3137 246.481 20.0007 247.919 19.2782 249.356 18.5557 250.113 18.1875 250.189 18.1738 250.766 17.6109 251.371 17.0338 252.005 16.4425 252.639 15.8512 253.244 15.2174 253.821 14.541 253.282 14.962 252.601 15.4823 251.778 16.1019 250.955 16.7216 250.501 16.9581 250.416 16.8115 250.525 15.9931 251.442 14.7917 253.168 13.2071 254.894 11.6225 256.096 10.4778 256.772 9.77296 257.902 8.62826 258.99 7.45517 260.035 6.25371 261.08 5.05224 262.111 3.87916 263.128 2.73445L276.294-13.3864C280.361-18.5045 284.371-23.6509 288.325-28.8257 292.278-34.0005 296.289-39.147 300.356-44.265 301.09-45.3187 302.024-46.7155 303.157-48.4557L303.371-48.7862 303.419-49.0462C305.339-59.7292 307.628-70.3671 310.286-80.9599 312.944-91.5527 316.027-102.016 319.536-112.351ZM353.122-115.302C352.479-114.621 351.95-113.94 351.535-113.259 351.757-113.5 351.993-113.812 352.243-114.195 352.494-114.578 352.786-114.947 353.122-115.302ZM293.319-125.744C292.969-124.826 292.591-123.937 292.184-123.077 291.777-122.216 291.399-121.44 291.049-120.75ZM308.528-161.61C299.618-148.642 291.9-134.909 285.374-120.409 278.848-105.91 272.492-91.4952 266.306-77.1658 262.556-68.8708 259.103-60.434 255.949-51.8553 252.795-43.2766 249.967-34.6128 247.465-25.8638 245.23-17.9566 243.344-9.93598 241.806-1.80181L242.925-6.11481C244.192-11.4588 245.687-16.7744 247.408-22.0616 249.129-27.3488 250.964-32.5509 252.913-37.6678 256.937-48.9516 261.033-60.2638 265.199-71.6043 269.366-82.9448 273.972-94.03 279.018-104.86 283.454-114.574 287.975-124.259 292.581-133.916 297.187-143.573 302.503-152.804 308.528-161.61ZM386.034-207.464C385.813-207.315 384.579-205.172 382.332-201.033 380.085-196.895 377.468-191.992 374.479-186.324 371.491-180.657 368.774-175.456 366.329-170.722 363.884-165.987 362.353-162.95 361.736-161.61 359.394-156.871 356.938-152.161 354.368-147.479 351.799-142.797 349.57-137.973 347.681-133.008 345.531-127.125 343.309-121.242 341.016-115.359 338.722-109.476 337.01-103.48 335.88-97.3719L335.653-96.6924C335.497-95.9988 335.299-95.0646 335.057-93.8897 334.816-92.7148 334.788-92.0637 334.972-91.9363 334.856-92.2904 335.492-94.4301 336.881-98.3553 338.269-102.28 339.746-106.319 341.311-110.471 342.877-114.624 343.866-117.217 344.279-118.253 345.229-120.603 346.278-122.883 347.426-125.091 348.574-127.3 349.566-129.636 350.401-132.1 351.313-134.691 352.324-137.169 353.433-139.534 354.543-141.899 355.724-144.263 356.975-146.628 357.855-148.475 359.868-152.484 363.015-158.655 366.161-164.826 369.587-171.609 373.291-179.004 376.995-186.398 380.123-192.855 382.674-198.373 385.226-203.892 386.345-206.922 386.034-207.464ZM401.572-218.126C400.283-218.253 398.947-217.423 397.562-215.636 395.717-213.252 394.297-211.209 393.303-209.507 393.407-209.606 393.426-209.578 393.36-209.422 393.294-209.266 393.199-209.067 393.076-208.826L393.076-209.053C393.066-208.944 393.029-208.878 392.962-208.854 392.896-208.831 392.858-208.821 392.849-208.826L393.076-208.826 392.849-208.599C392.839-208.49 392.801-208.424 392.735-208.4 392.669-208.377 392.631-208.367 392.621-208.372 388.556-201.869 384.704-195.182 381.064-188.311 377.425-181.439 373.856-174.582 370.359-167.739 367.134-161.477 363.882-155.159 360.604-148.784 357.325-142.409 354.302-136.091 351.535-129.83 351.88-130.416 352.21-130.946 352.527-131.419 352.843-131.892 353.117-132.194 353.348-132.327 353.294-132.17 352.874-130.996 352.089-128.804 351.304-126.613 350.481-124.345 349.621-122.003 348.76-119.66 348.189-118.183 347.908-117.572L341.101-99.6388C349.27-108.284 356.859-117.383 363.869-126.936 370.879-136.488 377.283-146.382 383.08-156.616 380.809-152.856 378.48-149.139 376.095-145.464 373.71-141.79 371.268-138.243 368.769-134.824L359.696-122.112 355.615-118.026 357.429-120.069C359.658-122.793 361.774-125.517 363.776-128.241 365.709-130.97 367.629-133.741 369.536-136.555 371.443-139.369 373.307-142.197 375.129-145.039 378.892-150.931 382.441-156.909 385.778-162.972 389.115-169.035 392.153-175.239 394.893-181.586 396.275-184.877 397.6-188.226 398.869-191.631 400.137-195.036 401.235-198.497 402.163-202.016 402.787-203.988 403.411-206.684 404.034-210.103 404.657-213.522 404.261-216.047 402.844-217.679 402.425-217.934 402.001-218.083 401.572-218.126ZM401.254-231.526C402.749-231.521 404.186-231.247 405.563-230.703 406.941-230.159 408.148-229.374 409.185-228.348 409.817-227.638 410.703-226.163 411.845-223.921 412.986-221.68 413.306-220.204 412.805-219.495 412.762-219.637 412.564-220.204 412.211-221.197 411.857-222.19 411.603-222.758 411.447-222.9 412.112-221.065 412.536-219.173 412.72-217.225 412.904-215.276 412.932-213.385 412.805-211.55 412.909-211.777 412.985-211.947 413.032-212.061 413.079-212.174 413.155-212.231 413.259-212.231 413.571-211.984 413.401-210.157 412.749-206.749 412.096-203.341 411.356-199.833 410.527-196.223 409.698-192.614 409.175-190.383 408.958-189.531 407.813-185.558 406.483-181.643 404.968-177.784 403.452-173.925 401.836-170.122 400.118-166.377 396.27-158.337 391.983-150.298 387.255-142.258 382.527-134.218 377.273-126.746 371.495-119.842 370.326-118.612 369.086-117.496 367.775-116.494 366.465-115.491 365.283-114.488 364.23-113.486 363.124-112.214 362.104-110.842 361.169-109.371 360.234-107.901 359.214-106.472 358.109-105.087 352.179-98.2803 345.904-91.9338 339.285-86.0472 337.417-84.3258 335.989-82.7179 335.001-81.2234 334.012-79.729 333.095-77.7806 332.248-75.3782 331.463-72.99 330.706-70.6159 329.978-68.2561 329.25-65.8962 328.493-63.5789 327.708-61.3042 324.757-52.262 322.033-43.1064 319.536-33.8372 323.395-39.7014 327.481-45.452 331.794-51.0892 330.295-49.3536 329.094-47.9443 328.191-46.8613 327.287-45.7783 326.824-45.2203 326.8-45.1872 326.829-45.4171 328.246-47.2982 331.051-50.8303 333.856-54.3624 337.194-58.5063 341.066-63.2621 344.938-68.0178 348.489-72.3462 351.719-76.2472 354.949-80.1481 357.003-82.5825 357.882-83.5502 360.2-86.192 362.998-89.0944 366.277-92.2571 369.555-95.4198 373.012-97.4992 376.645-98.4951 380.279-99.491 383.787-98.0597 387.169-94.2011 389.782-90.6289 390.577-86.8979 389.555-83.008 388.532-79.1182 387.056-75.4399 385.125-71.9732 382.068-65.6503 378.982-59.0578 375.868-52.1958 372.754-45.3338 370.236-38.6846 368.314-32.2482 368.456-32.5083 368.74-33.1231 369.166-34.0926 369.592-35.062 369.99-35.5066 370.359-35.4262 370.851-34.3716 370.548-32.111 369.45-28.6446 368.352-25.1781 367.595-22.7473 367.178-21.3522 366.966-20.3118 366.71-18.5904 366.413-16.1879 366.115-13.7855 366.37-12.1776 367.178-11.3642 368.769-10.6028 370.586-11.1041 372.631-12.8681 374.675-14.632 376.265-16.0981 377.401-17.2662 381.476-21.2623 385.423-25.4145 389.242-29.7228L399.918-41.9416 405.145-52.8864C406.906-56.7773 409.106-60.5574 411.746-64.2268 413.318-66.1799 414.991-68.0622 416.765-69.8734 418.539-71.6847 420.497-73.2832 422.641-74.6688 424.458-76.0308 426.502-77.1658 428.773-78.0738 429.653-78.4994 430.732-78.8399 432.009-79.0953 433.287-79.3507 434.252-79.6912 434.905-80.1168 435.596-80.7603 436.258-82.086 436.892-84.0939 437.526-86.1019 438.075-87.6553 438.539-88.7543 438.998-89.6686 439.5-90.5687 440.044-91.4545 440.588-92.3404 441.146-93.1836 441.719-93.9842 443.304-96.2953 445.073-98.4893 447.028-100.566 448.982-102.643 451.149-104.379 453.529-105.774 457.433-107.776 461.208-108.079 464.854-106.682 468.5-105.285 471.76-103.097 474.632-100.117 474.797-100.041 475.429-99.5687 476.527-98.699 477.625-97.8294 478.2-97.0157 478.252-96.258L477.347-97.1676 478.252-95.3485 478.479-95.1211C478.267-95.8506 478.522-95.8127 479.245-95.0074 479.969-94.2021 480.394-93.7094 480.522-93.5294 481.085-92.6152 481.548-91.6582 481.912-90.6587 482.276-89.6592 482.57-88.6454 482.792-87.6174 483.118-86.0162 483.26-84.3871 483.217-82.7301 483.175-81.0731 483.033-79.4453 482.792-77.8468 482.305-73.6331 481.52-69.4053 480.437-65.1632 479.355-60.9211 478.174-56.75 476.894-52.6498 480.302-53.2315 483.696-53.8841 487.077-54.6077L488.984-55.013 490.152-58.5518C491.011-60.8691 491.898-63.2148 492.814-65.5888 494.362-70.3558 496.023-75.1228 497.798-79.8898 498.421-81.389 499.157-82.9874 500.007-84.6852 500.856-86.3829 501.479-88.0382 501.876-89.6508 502.113-90.8757 502.321-91.9445 502.501-92.8572 502.681-93.7699 503.458-94.6684 504.831-95.5528 506.2-96.3142 507.611-96.7209 509.065-96.7729 510.519-96.825 511.987-96.7209 513.468-96.4608 515.566-96.0919 517.564-95.0137 519.461-93.2261 521.359-91.4384 521.483-89.1117 519.835-86.2458 518.996-85.2196 518.002-84.1508 516.85-83.0394 515.699-81.9281 514.648-80.8025 513.696-79.6628 512.744-78.4805 512.147-77.4401 511.905-76.5416 511.664-75.643 511.351-74.4891 510.967-73.0798 510.693-72.1813 510.219-71.3111 509.546-70.4693 508.874-69.6275 508.286-68.7573 507.784-67.8588 507.112-66.5914 506.524-65.2105 506.022-63.7161 505.52-62.2216 505.047-60.7272 504.601-59.2328 504.398-58.3437 504.293-57.5114 504.289-56.7358 504.284-55.9602 504.237-55.1279 504.147-54.2388 503.873-51.8553 503.46-49.4718 502.909-47.0883 502.358-44.7048 501.948-42.3213 501.677-39.9378 501.845-40.4438 502.181-40.964 502.685-41.4984 503.188-42.0328 503.524-42.2693 503.692-42.2078 503.693-41.9383 503.357-41.2289 502.685-40.0797 502.012-38.9305 501.676-38.2779 501.677-38.1218L515.06-57.6438C513.549-55.6812 512.308-54.1017 511.337-52.9052 510.366-51.7087 509.864-51.0939 509.831-51.0608 509.794-51.3451 511.086-53.2451 513.705-56.7607 516.325-60.2763 519.467-64.3824 523.133-69.0792 526.799-73.776 530.183-78.0384 533.285-81.8665 536.387-85.6945 538.402-88.0631 539.331-88.9723 542.769-92.1209 546.221-93.4257 549.688-92.8868 553.154-92.3478 555.755-89.4545 557.491-84.2068 558.567-80.4527 558.332-77.0432 556.785-73.9783 555.238-70.9134 553.186-68.0249 550.63-65.313 548.075-62.6011 545.821-59.8976 543.871-57.2025 542.4-54.9001 541.029-52.4701 539.756-49.9124 538.484-47.3548 537.283-44.868 536.153-42.4522 535.258-40.8684 534.21-38.7032 533.007-35.9564 531.804-33.2096 531.046-30.5338 530.733-27.9289 531.034-29.6828 531.616-31.451 532.479-33.2333 533.343-35.0156 534.038-36.5001 534.564-37.6867 535.462-40.06 536.56-42.2347 537.855-44.2109 539.151-46.187 540.702-48.0214 542.509-49.7139 541.7-48.2436 540.877-46.8158 540.04-45.4306 539.203-44.0454 538.437-42.6744 537.742-41.3176L538.877-42.6791C538.995-42.3671 538.702-41.0623 537.997-38.7646 537.293-36.467 536.829-35.0487 536.607-34.5098 536.139-33.1435 535.713-31.7346 535.33-30.2832 534.947-28.8318 534.692-27.3663 534.564-25.8865 534.465-25.6265 534.436-24.9552 534.479-23.8725 534.521-22.7899 534.55-22.1753 534.564-22.0287L534.791-21.8018C534.848-21.9153 535.131-22.0287 535.642-22.1422 536.153-22.2557 536.55-22.3691 536.834-22.4826 538.551-23.1114 540.225-24.0664 541.856-25.3476 543.488-26.6288 544.992-27.8674 546.368-29.0635 549.087-31.2335 551.764-33.4744 554.398-35.7862 557.032-38.098 559.652-40.3957 562.258-42.6791 564.249-44.4898 566.339-46.3147 568.529-48.1538 570.718-49.9928 572.638-51.8744 574.289-53.7986 575.05-55.0419 576.024-56.0158 577.211-56.7203 578.398-57.4247 579.316-56.5264 579.964-54.0255 580.096-51.1704 578.81-48.1439 576.105-44.9462 573.4-41.7485 571.205-39.1717 569.522-37.2156 567.053-34.0156 564.613-30.7866 562.201-27.5287 559.789-24.2708 557.235-21.1526 554.54-18.1742 552.431-15.7623 549.839-13.3788 546.765-11.0237 543.691-8.66856 540.532-7.87406 537.288-8.64019 536.281-9.02325 534.495-9.95963 531.93-11.4493 529.365-12.939 527.976-14.0456 527.763-14.7692L528.442-14.3152 527.084-15.6772C527.527-14.9016 527.433-14.7503 526.801-15.2232 526.169-15.6961 525.735-15.9988 525.5-16.1312 524.934-16.7223 524.425-17.4128 523.972-18.2026 523.52-18.9923 523.123-19.7395 522.784-20.4442 522.232-21.6926 521.865-22.9403 521.681-24.1871 521.497-25.434 521.412-26.6804 521.426-27.9265 521.44-29.1726 521.525-30.4187 521.681-31.6648 521.836-32.9109 521.978-34.157 522.105-35.4031 522.298-37.9874 522.534-40.4734 522.812-42.8611 523.09-45.2488 523.609-47.6793 524.368-50.1528 524.565-50.6839 525.102-52.0431 525.978-54.2304 526.853-56.4177 527.792-58.5168 528.794-60.5276 529.796-62.5383 530.584-63.5444 531.159-63.5458 531.324-63.4843 531.277-63.21 531.017-62.7229 530.757-62.2358 530.653-61.9048 530.705-61.7298L533.883-68.0858C533.665-67.8541 533.476-67.6365 533.315-67.4332 533.154-67.2298 532.965-67.069 532.748-66.9508 532.748-67.2535 533.202-68.2371 534.11-69.9018 535.018-71.5665 535.699-72.7771 536.153-73.5338 533.911-70.9186 531.813-68.2608 529.859-65.5604 527.905-62.8601 525.924-60.1455 523.916-57.4168 522.396-55.5393 520.846-53.8463 519.265-52.3377 517.685-50.8291 516.359-49.1928 515.288-47.4288 512.835-43.3761 510.297-39.3968 507.673-35.4911 505.05-31.5853 502.74-27.5533 500.743-23.3952L499.837-25.2077C497.675-22.9819 495.372-22.6696 492.927-24.2708 490.482-25.8721 488.632-27.7703 487.376-29.9655 486.416-31.7307 485.953-33.4113 485.986-35.0071 486.019-36.603 486.18-38.3979 486.468-40.3918 486.653-42.2031 486.795-44.0285 486.894-45.8682L487.07-46.9296 484.324-46.5521C481.619-46.185 479.822-45.9571 478.933-45.8682 478.588-45.8256 477.975-45.6838 477.093-45.4426 476.211-45.2014 475.768-45.1162 475.763-45.1872 474.731-44.8041 474.081-44.492 473.812-44.2508 473.544-44.0096 473.063-43.4137 472.37-42.4632 471.47-41.0917 470.611-39.6919 469.794-38.2637 468.977-36.8355 468.173-35.4356 467.383-34.0642 466.995-33.6144 466.055-32.3701 464.565-30.3313 463.075-28.2925 461.547-26.342 459.981-24.4797 458.415-22.6175 457.324-21.7263 456.708-21.8062 456.789-21.896 457.082-22.2838 457.589-22.9696 458.095-23.6553 458.331-24.0998 458.298-24.3032L451.712-16.5852C452.057-16.9257 452.332-17.1527 452.535-17.2662 452.739-17.3797 452.843-17.3797 452.847-17.2662 451.953-15.2799 450.165-13.2937 447.482-11.3074 444.799-9.32119 442.499-7.67544 440.583-6.37019 438.752-4.97508 436.736-3.73604 434.536-2.65306 432.336-1.57008 430.036-0.841794 427.637-0.468188 425.343-0.245918 423.005-0.349958 420.625-0.780313 418.246-1.21067 415.966-1.93896 413.786-2.96519 406.896-6.58773 401.975-12.1114 399.023-19.5362L397.47-24.8716 397.392-24.7572C394.16-19.6639 390.856-14.4712 387.482-9.17931 384.107-3.88738 380.293 0.908001 376.038 5.20681 374.509 6.69177 373.023 7.80785 371.58 8.55506 370.136 9.30227 368.366 9.62385 366.27 9.51981 363.701 9.3874 361.471 8.80098 359.582 7.76056 357.693 6.72015 355.918 5.33923 354.255 3.61781 353.66 3.10706 352.47 1.97206 350.685 0.212812 348.9-1.54644 348.049-2.90844 348.134-3.87319L349.495-1.83019C348.852-2.92735 348.323-4.13802 347.908-5.46219L347.908-4.55419C347.506-4.54946 347.006-5.75067 346.406-8.15781 345.806-10.565 345.476-12.1634 345.414-12.9532 345.32-14.6557 345.395-16.3582 345.641-18.0607 345.886-19.7632 346.189-21.4657 346.548-23.1682 348.172-28.6162 349.684-34.0642 351.081-39.5122 351.908-42.345 352.975-45.1352 354.283-47.8828 355.592-50.6305 356.942-53.3639 358.336-56.0832 358.713-56.8871 359.601-58.6275 360.999-61.3042 362.397-63.9809 363.398-65.4942 364.003-65.8442 363.96-65.655 363.819-65.2388 363.578-64.5957 363.337-63.9525 363.252-63.5364 363.323-63.3472L366.724-71.0652 366.043-70.3842 372.631-86.2742C368.468-82.7935 364.648-78.9156 361.171-74.6404 357.694-70.3653 354.33-66.1469 351.081-61.9852 349.518-60.0037 347.941-57.9512 346.348-55.8278 344.756-53.7044 343.007-51.8222 341.101-50.1812 340.453-49.6941 339.933-49.4198 339.541-49.3583 339.148-49.2968 338.685-48.9658 338.15-48.3652 337.701-47.7835 337.294-47.1309 336.93-46.4073 336.566-45.6838 336.216-44.9744 335.88-44.2792 333.218-39.9993 330.371-35.8471 327.339-31.8226 324.308-27.798 321.404-23.7026 318.628-19.5362L314.542-12.2722C314.344-11.7236 314.173-11.2318 314.031-10.7967 313.89-10.3616 313.606-9.86977 313.18-9.32119 311.601-7.77948 309.766-7.17415 307.675-7.50519 305.585-7.83623 303.864-8.8199 302.511-10.4562 301.523-11.6196 300.889-12.9248 300.61-14.3719 300.331-15.8191 300.208-17.2378 300.241-18.6282 300.052-21.1417 300.005-23.673 300.099-26.222L300.639-32.0844 291.843-18.7788C288.58-14.2568 285.289-9.73473 281.969-5.21268 278.351-0.321624 274.691 4.54089 270.988 9.37485 267.285 14.2088 263.454 18.9571 259.496 23.6198 257.675 25.9989 255.585 28.4914 253.225 31.0972 250.865 33.7029 248.264 35.7422 245.422 37.215 243.207 38.1461 240.859 38.2125 238.38 37.4142 235.901 36.616 233.718 35.4922 231.83 34.0428 229.797 32.6644 228.189 31.0028 227.006 29.0579 225.824 27.113 225.011 24.9982 224.566 22.7134 224.372 21.7915 224.136 20.1172 223.857 17.6907 223.578 15.2642 223.739 13.533 224.339 12.4971L224.339 15.9028 224.793 11.3619C224.576 11.6835 224.443 11.4375 224.396 10.6239 224.349 9.81036 224.33 9.22382 224.339 8.86433 224.349 7.94667 224.443 7.00063 224.623 6.02622 224.803 5.0518 225.011 4.10577 225.247 3.18811 225.484 1.38118 225.805-0.397365 226.212-2.14753 226.619-3.89769 227.054-5.67624 227.517-7.48317 228.326-10.9977 229.149-14.5264 229.986-18.0693 230.823-21.6122 231.589-25.1977 232.284-28.8257 232.885-32.449 233.727-35.9872 234.81-39.4402L235.921-42.821 219.995-30.1946C212.92-24.5216 205.959-18.6217 199.111-12.4948 197.664-11.2515 196.018-9.93722 194.174-8.55206 192.329-7.1669 190.797-5.68246 189.577-4.09875 188.48-2.37316 187.609-0.150823 186.966 2.56824 186.323 5.2873 185.68 7.68016 185.037 9.74681 180.984 23.1351 176.605 36.5375 171.899 49.9542 167.194 63.3708 161.282 76.149 154.165 88.2888 152.032 92.0438 149.715 95.5434 147.213 98.7876 144.711 102.032 141.202 104.283 136.686 105.541 131.451 106.803 126.33 106.378 121.324 104.264 116.317 102.15 112.216 98.9436 109.02 94.6448 106.128 90.6723 104.951 86.5863 105.489 82.3868 106.027 78.1873 107.472 74.1013 109.826 70.1288 112.179 66.1563 114.633 62.5243 117.187 59.2328 120.681 54.5509 124.233 49.8974 127.841 45.2723 131.45 40.6472 135.23 36.2207 139.183 31.9928 142.03 29.0465 144.962 26.1428 147.979 23.2817 150.996 20.4205 154.042 17.5736 157.116 14.7408 159.433 12.5796 162.063 10.2623 165.004 7.78894 167.946 5.31558 170.235 2.71454 171.871-0.0141848 173.616-3.50782 175.006-7.35601 176.042-11.5588 177.078-15.7615 178.184-19.7799 179.362-23.6139 181.216-29.9677 183.183-36.3214 185.264-42.6752 183.471-41.2239 181.778-39.418 180.185-37.2575 178.591-35.097 176.955-33.1209 175.276-31.3292L160.294-16.3524C157.91-13.7996 155.3-11.3602 152.462-9.03427 149.625-6.70833 146.56-4.83624 143.269-3.41799 142.28-3.04983 140.512-2.31111 137.963-1.20185 135.414-0.0925886 133.929 0.539756 133.508 0.69519L133.962 0.239576 132.6 0.69519C133.201 0.769672 132.908 1.06761 131.722 1.589 130.537 2.11039 129.62 2.40833 128.973 2.48281 127.708 2.70472 126.442 2.71491 125.177 2.5134 123.911 2.3119 122.759 1.92928 121.72 1.36555 119.544 0.137851 117.778-1.66181 116.422-4.03344 115.067-6.40507 114.264-8.77752 114.014-11.1508 113.937-11.8539 113.99-13.4851 114.174-16.0444 114.357-18.6037 114.679-21.0618 115.139-23.4186 115.599-25.7754 116.207-27.0017 116.961-27.0973 117.14-27.0451 117.178-26.8078 117.074-26.3854 116.97-25.963 117.008-25.6687 117.187-25.5026 117.296-26.3094 117.419-27.1447 117.556-28.0085 117.693-28.8723 117.872-29.7076 118.094-30.5144L117.641-30.0588C117.364-30.4019 117.792-32.4493 118.925-36.2011L122.473-47.2792 119.615-45.1389C117.979-43.6425 116.144-42.1462 114.11-40.6498 112.077-39.1534 110.128-37.7707 108.265-36.5016 106.767-35.5971 105.286-35.0194 103.824-34.7685 102.361-34.5175 101.05-33.8829 99.8924-32.8648 99.7836-32.8743 99.7174-32.9122 99.6937-32.9785 99.6701-33.0448 99.6606-33.0827 99.6653-33.0921 99.3436-32.737 98.9651-32.3108 98.5298-31.8136 98.0945-31.3164 97.4889-30.8334 96.713-30.3646 95.7336-29.6827 94.9103-29.0008 94.2432-28.3189 93.5761-27.637 92.8096-26.9551 91.9438-26.2732 90.373-25.2456 88.9725-24.6868 87.7424-24.5969 86.5122-24.5069 85.3389-24.2322 84.2223-23.7729L84.4494-23.7729C83.8059-23.4039 82.519-22.1468 80.5886-20.0014 78.6582-17.8562 76.7657-15.673 74.911-13.4519 73.0563-11.2308 71.9208-9.82216 71.5044-9.22585 69.6734-7.19438 67.8282-5.23393 65.9688-3.34452 64.1094-1.4551 62.3209 0.448517 60.6034 2.36634 59.0374 4.20366 56.9461 6.38194 54.3297 8.90115 51.7133 11.4204 49.111 12.8031 46.523 13.0493 43.7375 12.7226 41.2645 10.8758 39.104 7.50895 36.9435 4.1421 35.4897 1.21565 34.7426-1.27042 33.8058-4.10691 33.8625-5.59382 34.913-5.73114 35.9634-5.86847 37.4965-6.04841 39.5122-6.27098 42.2328-7.12808 44.7602-8.82334 47.0944-11.3568 49.4287-13.8902 51.5092-16.2105 53.3361-18.3178 55.7018-20.9459 58.0107-23.6451 60.2628-26.4153 62.5149-29.1854 64.8238-31.9414 67.1895-34.6832 68.1073-35.5829 68.9968-36.5111 69.8579-37.4676 70.719-38.4242 71.495-39.4659 72.1857-40.593 72.323-41.0807 72.6163-41.9236 73.0658-43.1216 73.5153-44.3197 73.9789-44.9921 74.4568-45.1389 74.4568-45.1152 74.4-44.9353 74.2865-44.5991 74.1729-44.2629 74.0026-43.9125 73.7755-43.5478L75.1381-45.5935C74.8826-45.5509 74.9962-46.1475 75.4787-47.3835 75.9613-48.6194 76.302-49.3865 76.5007-49.6849 77.0732-50.9255 77.6883-52.1378 78.3459-53.3216 79.0036-54.5055 79.6754-55.7177 80.3615-56.9584 81.6579-59.2361 82.9259-61.6133 84.1655-64.0899 85.4051-66.5665 86.3324-69.1141 86.9475-71.7328 87.4538-73.3473 87.7471-75.6292 87.8275-78.5786 87.908-81.5279 86.7819-82.9581 84.4494-82.8692 83.7288-82.6928 82.3942-81.9354 80.4456-80.597 78.497-79.2587 76.6241-77.9455 74.8269-76.6575 73.0297-75.3695 71.9979-74.7129 71.7315-74.6876 71.6937-74.8486 71.8829-75.1517 72.2993-75.5968 72.7157-76.042 72.9049-76.345 72.8671-76.506 71.9492-75.5968 71.0029-74.6308 70.0283-73.608 69.0536-72.5851 68.1073-71.5055 67.1895-70.369 67.4166-70.5915 67.6437-70.7715 67.8708-70.9088 68.0979-71.0461 68.325-71.1693 68.5521-71.2782 67.7432-70.4574 65.7273-67.8561 62.5044-63.4743 59.2815-59.0925 56.0712-54.6728 52.8735-50.2152 49.6758-45.7577 47.7104-43.0048 46.9772-41.9567 45.1848-39.447 43.4949-36.852 41.9076-34.1718 40.3203-31.4916 38.6891-28.7829 37.0139-26.0459 36.1243-24.649 35.2347-23.181 34.3452-21.642 33.4556-20.103 32.4525-18.6919 31.3358-17.4086 30.7491-16.9729 30.1624-16.5941 29.5756-16.2721 28.9889-15.9501 28.5157-15.5712 28.1561-15.1356 26.9212-13.3693 25.7572-11.3331 24.6641-9.02696 23.5711-6.72084 22.4639-4.51415 21.3425-2.40691 19.8804 0.112305 18.4325 2.68835 16.9988 5.32121 15.5651 7.95408 14.0604 10.5301 12.4848 13.0493 11.1599 15.5496 10.0621 18.1067 9.1915 20.7206 8.32087 23.3346 7.45024 26.0053 6.57962 28.7329 5.88405 30.6507 5.17429 32.4975 4.45035 34.2733 3.7264 36.049 3.07342 37.839 2.49143 39.6432 2.60972 39.2975 2.7706 38.966 2.97406 38.6488 3.17752 38.3315 3.39518 38.0568 3.62704 37.8248 3.88255 38.0568 3.76899 39.4112 3.28636 41.8878 2.80372 44.3644 2.46303 45.8892 2.26431 46.4621L0.220214 56.9178C-0.560519 60.6777-1.27027 64.466-1.90905 68.2827-2.54783 72.0994-3.2008 75.8877-3.86796 79.6476-3.92948 81.1251-4.09036 82.8866-4.3506 84.9323-4.61085 86.978-5.28274 88.6259-6.3663 89.876-8.98245 91.9103-11.582 91.815-14.165 89.5902-16.748 87.3654-18.6075 85.112-19.7435 82.8298-22.3784 77.1095-23.1151 70.4799-21.9535 62.9412-20.792 55.4025-19.6028 48.5457-18.3859 42.3708-17.8391 38.4878-17.1225 34.6048-16.2359 30.7218-15.3493 26.8388-14.1792 23.0694-12.7257 19.4137-12.1532 18.3009-11.5948 17.2307-11.0507 16.2031-10.5065 15.1755-10.005 14.0485-9.54599 12.822-9.54126 12.519-9.43717 11.6477-9.23371 10.2081-9.03024 8.76857-8.75581 7.89726-8.41039 7.5942-8.40093 7.70784-8.36307 7.82149-8.29683 7.93514-8.23059 8.04879-8.19273 8.16244-8.18327 8.27609-8.17854 8.05353-8.13122 7.81675-8.04132 7.56578-7.95142 7.31481-7.84732 7.02121-7.72903 6.685-8.22585 7.44266-8.3678 7.12066-8.15488 5.71899-7.94196 4.31732-7.80001 3.42707-7.72903 3.04824-7.37888 1.80283-7.00035 0.600049-6.59342-0.560117-6.1865-1.72028-5.80796-2.86624-5.45782-3.998-4.66762-6.14786-3.97679-8.26931-3.38534-10.3623-2.79388-12.4554-2.27339-14.5768-1.82387-16.7267-1.61918-17.5601-0.9939-19.631 0.0519788-22.9395 1.09786-26.2479 2.24468-29.4301 3.49244-32.486 4.74021-35.5419 5.76927-37.1077 6.57962-37.1835 6.75468-37.1219 6.74522-36.8473 6.55122-36.3595 6.35722-35.8718 6.29098-35.5403 6.35249-35.3651 6.802-36.3879 7.20893-37.4108 7.57326-38.4336 7.93761-39.4565 8.28775-40.4793 8.6237-41.5021 8.51487-41.2701 8.39185-41.0523 8.25463-40.8487 8.11741-40.645 7.93761-40.4841 7.71521-40.3657 7.81335-40.6421 8.5508-42.7158 9.92755-46.5869 11.3043-50.458 12.7315-54.468 14.2092-58.6168 15.6869-62.7657 16.6262-65.3951 17.0272-66.5049 17.912-68.7731 18.6975-71.0556 19.3836-73.3523 20.0697-75.6489 20.7983-77.9882 21.5696-80.3701 21.7258-80.8673 21.9813-81.5202 22.3361-82.3289 22.691-83.1376 22.8898-83.8466 22.9323-84.4558 22.885-84.8902 22.6958-85.268 22.3645-85.5891 22.0333-85.9102 21.8441-86.2879 21.7967-86.7224 21.5743-89.8436 22.3598-92.4974 24.1531-94.6837 25.9464-96.87 28.7192-97.5405 32.4714-96.6953 34.4022-96.1995 36.0484-95.2645 37.4099-93.8904 38.7715-92.5163 39.847-90.958 40.6366-89.2156 41.574-87.3741 41.9482-85.8439 41.7593-84.625 41.5704-83.4062 41.2706-81.9878 40.86-80.3701L41.5304-81.5066C41.8125-81.3873 41.8526-80.5651 41.6507-79.04 41.4488-77.5148 41.1215-76.0023 40.6689-74.5024 40.2163-73.0025 39.755-72.2309 39.2851-72.1873 39.2141-72.3152 39.2992-72.9119 39.5405-73.9773 39.7817-75.0428 39.9236-75.8099 39.9662-76.2787 39.0531-73.1013 38.0974-69.9665 37.099-66.8743L34.2802-58.3058 34.0613-57.8676 32.6986-54.0035C32.5897-53.6531 32.4667-53.2743 32.3295-52.867 32.1923-52.4598 32.0125-52.081 31.7901-51.7306 29.9058-46.2123 27.8701-40.1005 25.683-33.3952 23.4959-26.6899 21.5612-20.6791 19.8788-15.3629 18.1964-10.0467 17.1702-6.71295 16.8001-5.36178 17.7133-7.1849 18.6691-8.99382 19.6675-10.7885 20.6659-12.5832 21.6784-14.3353 22.7052-16.0448 21.6595-14.5342 20.7983-13.2935 20.1217-12.3228 19.4451-11.352 19.0949-10.8501 19.0713-10.8169 19.1835-10.9998 20.3767-12.9354 22.6509-16.6237 24.9251-20.3119 27.6069-24.6555 30.6964-29.6542 33.7859-34.653 36.6097-39.2096 39.1678-43.3241 41.7258-47.4385 43.3449-50.0134 44.0249-51.0487 48.0891-57.2144 52.2243-63.4077 56.4304-69.6283 60.6366-75.849 65.0556-81.9248 69.6876-87.8556 71.7836-90.6417 74.4615-93.6261 77.7214-96.8089 80.9813-99.9917 84.5109-101.616 88.3101-101.682 94.314-100.86 98.3731-97.9133 100.487-92.8405 102.602-87.7677 103.539-82.7775 103.299-77.8698 103.406-78.5043 103.528-79.1673 103.663-79.8587 103.798-80.55 103.975-80.872 104.195-80.8247 105.245-80.039 105.58-78.1252 105.2-75.0833 104.819-72.0414 104.2-68.9491 103.342-65.8062 102.484-62.6633 101.864-60.5475 101.482-59.4587 100.209-55.6988 98.667-51.9673 96.8549-48.2643 95.0428-44.5612 93.103-40.9434 91.0354-37.4108 93.2924-38.6704 95.4779-40.0152 97.5918-41.4453 99.7057-42.8754 101.832-44.3339 103.971-45.8208 105.938-46.9952 108.052-47.8286 110.31-48.3211 112.569-48.8136 114.687-49.4197 116.664-50.1395 116.536-50.1442 116.394-50.1916 116.238-50.2815 116.082-50.3715 115.997-50.4757 115.983-50.5941 115.897-51.2325 116.775-51.9761 118.614-52.825 120.454-53.6738 122.407-54.4343 124.474-55.1063L125.199-55.3329 127.698-62.1511C128.544-64.5383 129.573-66.8259 130.787-69.0138 131.254-69.6593 131.736-70.1907 132.232-70.6078 132.728-71.025 133.153-71.5551 133.508-72.1983 133.74-72.4624 134.014-72.8964 134.331-73.5 134.648-74.1037 134.979-74.6508 135.324-75.1413 136.672-77.8157 138.686-79.7688 141.368-81.0006 144.049-82.2324 146.801-82.3167 149.625-81.2537 150.977-80.749 152.245-79.8341 153.427-78.5088 154.609-77.1835 155.082-75.7592 154.846-74.2358 154.595-73.5849 154.245-73.0756 153.796-72.7077 153.347-72.3398 152.94-71.9436 152.576-71.5192 152.689-71.5286 152.803-71.5664 152.916-71.6324 153.03-71.6984 153.143-71.7361 153.257-71.7456 153.455-71.3191 153.058-70.0097 152.065-67.8174 151.072-65.625 150.334-64.4292 149.852-64.2298 149.658-64.2868 149.648-64.6285 149.823-65.255 149.998-65.8814 150.159-66.4509 150.306-66.9635 147.79-61.7167 145.387-56.3777 143.099-50.9465 140.81-45.5152 138.748-40.0351 136.913-34.5061 137.518-36.0651 138.527-38.5696 139.939-42.0197 141.352-45.4697 142.714-48.6802 144.025-51.6512 145.337-54.6221 146.144-56.1686 146.447-56.2904 146.47-56.0162 145.488-53.6856 143.501-49.2984 141.514-44.9113 139.405-39.7725 137.173-33.882 134.941-27.9916 133.469-22.6542 132.757-17.87 132.046-13.0857 132.977-10.1594 135.551-9.091 137.651-8.69862 140.091-9.59684 142.872-11.7857 145.652-13.9745 147.752-15.7237 149.171-17.0332 152.325-19.4348 155.607-21.9498 159.017-24.5783 162.427-27.2068 165.425-29.8353 168.012-32.4638 167.79-32.3362 167.553-32.1943 167.302-32.0383 167.052-31.8823 166.759-31.7972 166.423-31.783 166.619-31.9315 167.614-33.0717 169.407-35.2036 171.201-37.3356 173.07-39.5684 175.015-41.902 176.96-44.2356 178.258-45.7793 178.908-46.5329 180.993-48.6886 183.292-51.0145 185.803-53.5107 188.314-56.0068 190.102-58.6731 191.166-61.5096 191.52-63.1075 192.06-64.4501 192.783-65.5374 193.507-66.6247 195.011-67.4001 197.295-67.8634 200.222-68.3219 203.22-67.9154 206.29-66.6437 209.359-65.372 211.279-63.2068 212.05-60.1481 212.248-58.8055 212.135-57.5763 211.709-56.4606 211.284-55.3449 210.716-54.2292 210.007-53.1135 206.569-47.5304 203.343-41.7344 200.331-35.7258 197.318-29.7171 194.717-23.6375 192.528-17.4871 197.735-21.9214 202.984-26.3275 208.276-30.7052 213.568-35.0828 218.988-39.3754 224.535-43.5829 226.474-45.1524 228.441-46.6652 230.437-48.1213 232.433-49.5774 234.4-51.0902 236.339-52.6597 237.164-53.4595 238.313-54.4569 239.786-55.6517L240.482-56.1628 242.302-61.0666C243.201-63.3245 243.863-64.5354 244.287-64.6994 244.367-64.5906 244.32-64.127 244.145-63.3087 243.97-62.4904 243.866-61.9701 243.833-61.7478 244.301-63.4506 244.84-65.1535 245.45-66.8563 246.06-68.5592 246.656-70.2621 247.238-71.9649 246.992-71.3642 246.746-70.8628 246.5-70.4607 246.254-70.0587 246.122-69.9546 246.103-70.1486 246.207-71.6007 246.737-73.2941 247.692-75.2288 248.647-77.1634 249.404-78.8 249.962-80.1387L252.686-88.0854C253.92-91.7276 255.197-95.3415 256.516-98.927 257.836-102.512 259.283-106.013 260.858-109.428 257.68-109.253 254.559-109.149 251.495-109.116 248.431-109.083 245.425-108.808 242.477-108.293 238.08-107.545 233.395-107.28 228.422-107.498 223.45-107.716 218.759-108.132 214.351-108.747 213.552-108.813 212.37-109.021 210.804-109.37 209.239-109.719 208.681-110.493 209.13-111.69 209.537-112.058 210.539-112.454 212.138-112.878 213.736-113.302 214.852-113.585 215.486-113.726 217.647-114.48 219.851-114.951 222.098-115.14 224.344-115.329 226.604-115.46 228.879-115.536 233.295-115.927 237.679-116.163 242.031-116.243 246.383-116.323 250.767-116.615 255.183-117.119 256.389-117.181 257.779-117.171 259.354-117.091 260.929-117.011 262.262-117.171 263.355-117.572 264.315-117.922 264.949-118.47 265.256-119.218 265.563-119.965 265.913-120.854 266.306-121.885 267.933-126.009 269.673-130.019 271.527-133.916 272.525-136.091 273.537-138.267 274.563-140.445 275.589-142.623 276.771-144.692 278.11-146.652 279.027-147.821 279.916-148.777 280.777-149.52 281.638-150.263 282.413-151.275 283.104-152.558 284.452-155.637 285.956-158.66 287.615-161.627 289.275-164.593 291.176-167.389 293.319-170.015 295.679-172.906 298.62-174.721 302.143-175.458 305.667-176.195 309.232-176.194 312.841-175.457 314.704-175.14 316.426-174.413 318.005-173.274 319.585-172.136 320.058-170.445 319.424-168.202 319.031-167.314 318.398-166.539 317.523-165.878 316.648-165.216 315.844-164.555 315.111-163.894 315.196-163.898 315.536-164.172 316.132-164.716 316.728-165.259 317.069-165.363 317.154-165.027 316.98-164.364 316.193-162.995 314.791-160.921 313.39-158.847 311.964-156.874 310.512-155.001 309.06-153.128 308.172-152.163 307.847-152.104 307.875-152.331 308.386-153.294 309.379-154.995 310.372-156.695 310.996-157.772 311.252-158.226 306.958-151.847 302.947-145.253 299.221-138.443L297.921-135.928 298.437-136.782C298.82-137.34 299.157-137.671 299.448-137.775L294-127.333C295.149-130.038 296.199-132.402 297.149-134.427L297.326-134.778 288.552-117.802C289.195-117.839 289.952-118.67 290.822-120.297 290.103-118.897 289.725-118.065 289.687-117.802 294.118-118.01 298.592-118.16 303.108-118.255 307.625-118.349 312.155-118.5 316.7-118.707 317.707-118.877 318.814-119.161 320.02-119.559 320.924-119.858 321.549-119.645 321.895-118.922L321.956-118.706 324.672-125.84C326.526-130.261 328.522-134.609 330.659-138.881 334.934-147.427 339.323-155.987 343.825-164.561 343.849-164.854 344.085-165.743 344.534-167.228 344.984-168.713 345.504-169.716 346.094-170.236 345.929-169.957 345.636-169.21 345.215-167.994 344.795-166.779 344.558-166.088 344.506-165.923L347.228-171.144C347.19-171.106 347.039-171.182 346.774-171.371 346.935-173.513 347.861-175.868 349.551-178.436 351.242-181.004 352.734-183.189 354.028-184.991 357.202-190.174 360.603-195.244 364.23-200.2 367.351-204.711 370.587-209.195 373.937-213.65 377.288-218.104 381.093-222.02 385.352-225.397 387.633-227.17 390.113-228.674 392.792-229.908 395.471-231.143 398.291-231.682 401.254-231.526Z" stroke="#2C4255" stroke-linejoin="round" stroke-miterlimit="10" fill="#F3CA12" fill-rule="evenodd" transform="matrix(1 0 0 1.00084 523.021 381.304)"/><text fill="#000000" fill-opacity="0" font-family="Arial,Arial_MSFontService,sans-serif" font-size="337.801" x="-22.4866" y="64.0239">python</text></g></svg>